<svg xmlns="http://www.w3.org/2000/svg" viewBox="0 0 312.25 328.98"><defs><style>.cls-1{isolation:isolate;}.cls-2{fill:#0a2f41;}.cls-3{fill:#e2ea34;}.cls-4{fill:#f5f5f5;}.cls-5{fill:#29c5e5;}.cls-6{fill:#e6e7e8;}.cls-6,.cls-9{mix-blend-mode:multiply;}.cls-7{fill:#2c7b9b;}.cls-8{fill:#124a66;}</style></defs><title>booste</title><g class="cls-1"><g id="Calque_8" data-name="Calque 8"><path class="cls-2" d="M358.22,899.68h0q-6.82-1-13.84-1.42c-3-.17-6-0.26-9.1-0.26a155.63,155.63,0,0,0-21,1.4h0a156.16,156.16,0,0,0-21.72,305l0.13,0a4.56,4.56,0,0,1,4.21-3.64h0.15l0.31,0h0.17a74.88,74.88,0,0,1,19,1.93,4.54,4.54,0,0,1,2.88,2,5.34,5.34,0,0,1,1.87-.51,41.38,41.38,0,0,1,16,1.64,5.37,5.37,0,0,1,1.33.64A4.63,4.63,0,0,1,342,1205h12a5.34,5.34,0,0,1,1.3.17,4.87,4.87,0,0,1,4.08-2.5c2.22-.14,4.29,0,6.41-0.66a24.87,24.87,0,0,1,7-1h0.38a4.56,4.56,0,0,1,4.59,3.36l0.18,0A156.16,156.16,0,0,0,358.22,899.68Z" transform="translate(-179.14 -881.27)"/><path class="cls-3" d="M377.94,1204.35a157.32,157.32,0,0,1-85.36,0l19.3-120.69,0.13-.82,5.12,3.71,18.13,13.12,17.8-12.88h0l5.31-3.84,0.14-.1Z" transform="translate(-179.14 -881.27)"/><path class="cls-4" d="M321,1058.55l28.57,0.18a8.09,8.09,0,0,0,6.37-3c16.31-20.35,26.44-48.08,26.63-78.71,0.24-38.17-15-72-38.57-92.82a11.6,11.6,0,0,0-15.26-.09c-23.82,20.5-39.48,54.16-39.72,92.33-0.19,30.64,9.6,58.48,25.65,79A8.09,8.09,0,0,0,321,1058.55Z" transform="translate(-179.14 -881.27)"/><path class="cls-5" d="M360,1051.47a28.3,28.3,0,0,1,27.81,24.14,3.86,3.86,0,0,0,3.77,3.34h0.57a3.82,3.82,0,0,0,3.77-3,75.93,75.93,0,0,0-17.5-66,122.37,122.37,0,0,1-19.22,41.57Z" transform="translate(-179.14 -881.27)"/><path class="cls-5" d="M310.69,1051.18A28.3,28.3,0,0,0,282.58,1075a3.86,3.86,0,0,1-3.81,3.29H278.2a3.82,3.82,0,0,1-3.73-3.07,75.93,75.93,0,0,1,18.32-65.79,122.37,122.37,0,0,0,18.7,41.8Z" transform="translate(-179.14 -881.27)"/><path class="cls-5" d="M328.78,884.05a109.15,109.15,0,0,0-26,33.75l66.72,0.41a109.16,109.16,0,0,0-25.57-34.06A11.55,11.55,0,0,0,328.78,884.05Z" transform="translate(-179.14 -881.27)"/><path class="cls-6" d="M310.22,915.67a1.59,1.59,0,0,1-1.58-1.6,1.59,1.59,0,0,1,.48-1.12,1.64,1.64,0,0,1,2.24,0A1.59,1.59,0,0,1,310.22,915.67Z" transform="translate(-179.14 -881.27)"/><path class="cls-6" d="M317.38,914.13a1.59,1.59,0,0,1,1.6-1.58h0a1.59,1.59,0,0,1,1.58,1.6h0a1.59,1.59,0,0,1-1.6,1.58h0A1.59,1.59,0,0,1,317.38,914.13Z" transform="translate(-179.14 -881.27)"/><path class="cls-6" d="M327.72,912.61a1.58,1.58,0,0,0-1.6,1.57v0a1.58,1.58,0,0,0,1.58,1.58h0a1.58,1.58,0,0,0,1.57-1.58v0A1.58,1.58,0,0,0,327.72,912.61Zm8.74,0a1.59,1.59,0,1,0,1.58,1.6A1.59,1.59,0,0,0,336.46,912.66Zm8.74,0a1.59,1.59,0,0,0,0,3.18h0a1.59,1.59,0,0,0,1.58-1.58v0A1.6,1.6,0,0,0,345.2,912.71Zm8.75,0.06a1.58,1.58,0,0,0-1.6,1.58v0a1.58,1.58,0,0,0,1.58,1.57h0a1.58,1.58,0,0,0,1.57-1.57v0A1.58,1.58,0,0,0,354,912.77Z" transform="translate(-179.14 -881.27)"/><path class="cls-6" d="M362.67,916a1.59,1.59,0,0,1-1.11-2.72,1.65,1.65,0,0,1,2.25,0A1.59,1.59,0,0,1,362.67,916Z" transform="translate(-179.14 -881.27)"/><path class="cls-6" d="M302.22,918.92l67.84,0.42c-0.18-.38-0.37-0.75-0.56-1.13l-66.72-.41C302.6,918.17,302.4,918.54,302.22,918.92Z" transform="translate(-179.14 -881.27)"/><path class="cls-6" d="M290.22,1012.39a131.35,131.35,0,0,0,16.47,39.05,28.51,28.51,0,0,1,4-.26l0.8,0a122.37,122.37,0,0,1-18.7-41.8Q291.46,1010.86,290.22,1012.39Z" transform="translate(-179.14 -881.27)"/><path class="cls-6" d="M378.37,1009.92a122.37,122.37,0,0,1-19.22,41.57l0.8,0a28.53,28.53,0,0,1,4,.31A131.34,131.34,0,0,0,380.93,1013Q379.69,1011.41,378.37,1009.92Z" transform="translate(-179.14 -881.27)"/><path class="cls-5" d="M358.37,1083.13c-0.16,25.27-23.6,56.43-23.6,56.43s-23.05-31.45-22.9-56.72c0.08-12.84,10.53-19.37,23.37-19.29S358.45,1070.29,358.37,1083.13Z" transform="translate(-179.14 -881.27)"/><path class="cls-7" d="M353.8,1081.2c-0.06,10.31-8.51,24.89-18.82,24.82s-18.58-14.74-18.52-25.06,8.45-14.81,18.76-14.74S353.87,1070.89,353.8,1081.2Z" transform="translate(-179.14 -881.27)"/><path class="cls-8" d="M346.21,1075.91c0,6.1-5,14.89-11.14,14.85s-11-8.89-11-15,5-7.21,11.09-7.17S346.25,1069.81,346.21,1075.91Z" transform="translate(-179.14 -881.27)"/><path class="cls-7" d="M314.66,1055.47a8.09,8.09,0,0,0,6.33,3.08l28.57,0.18a8.09,8.09,0,0,0,6.37-3q1.66-2.07,3.23-4.24l-47.65-.28Q313,1053.38,314.66,1055.47Z" transform="translate(-179.14 -881.27)"/><path class="cls-8" d="M315.41,1051.23l0,5a7.92,7.92,0,0,0,.84.7l0-5.73h-0.84Z" transform="translate(-179.14 -881.27)"/><path class="cls-8" d="M319.74,1051.25l0,7.17a8.23,8.23,0,0,0,.84.09l0-7.26h-0.84Z" transform="translate(-179.14 -881.27)"/><rect class="cls-8" x="320.83" y="1054.5" width="7.29" height="0.84" transform="translate(-911.49 491.92) rotate(-89.66)"/><rect class="cls-8" x="325.16" y="1054.53" width="7.29" height="0.84" transform="translate(-907.21 496.28) rotate(-89.66)"/><rect class="cls-8" x="329.49" y="1054.56" width="7.29" height="0.84" transform="matrix(0.01, -1, 1, 0.01, -902.92, 500.64)"/><rect class="cls-8" x="333.82" y="1054.58" width="7.29" height="0.84" transform="translate(-898.64 505.01) rotate(-89.66)"/><rect class="cls-8" x="338.15" y="1054.61" width="7.29" height="0.84" transform="translate(-894.37 509.35) rotate(-89.66)"/><rect class="cls-8" x="342.48" y="1054.63" width="7.3" height="0.84" transform="translate(-890.09 513.71) rotate(-89.66)"/><path class="cls-8" d="M350.07,1051.43l0,7.27a8.22,8.22,0,0,0,.84-0.09l0-7.18h-0.84Z" transform="translate(-179.14 -881.27)"/><path class="cls-8" d="M354.4,1051.46l0,5.73a7.92,7.92,0,0,0,.85-0.69l0-5H354.4Z" transform="translate(-179.14 -881.27)"/><g class="cls-9"><path class="cls-4" d="M336.37,881.28c1.05,0,2.1,1,2.93,2.88,9,20.71,14.81,54.5,14.57,92.67-0.19,30.64-4.22,58.4-10.6,78.81-0.6,1.93-1.52,3-2.48,3h0l8.76,0.05a8.09,8.09,0,0,0,6.37-3c16.31-20.35,26.44-48.08,26.63-78.71,0.24-38.17-15-72-38.57-92.82A11.59,11.59,0,0,0,336.37,881.28Z" transform="translate(-179.14 -881.27)"/></g></g></g></svg>