<svg id="Calque_8" data-name="Calque 8" xmlns="http://www.w3.org/2000/svg" viewBox="0 0 465.33 370.5"><defs><style>.cls-1{fill:#232323;}.cls-1,.cls-12{opacity:0.1;}.cls-2,.cls-7{fill:#e3e4e5;}.cls-12,.cls-19,.cls-3,.cls-8{fill:#fff;}.cls-4{fill:#eeefef;}.cls-5{fill:#ced0d1;}.cls-6{fill:#303333;}.cls-7{opacity:0.5;}.cls-8{stroke:#e3e4e5;stroke-miterlimit:10;stroke-width:0.5px;}.cls-9{fill:#caccce;}.cls-10{fill:#5bc11f;}.cls-11{fill:#29c5e5;}.cls-13{font-size:12px;fill:#4586ec;font-family:Futura;}.cls-14{fill:#ea413d;}.cls-15{fill:#fbbb41;}.cls-16{fill:#31a85f;}.cls-17{fill:#124a66;}.cls-18{fill:#e2e2e2;}.cls-19{opacity:0.08;}</style></defs><title>google-result</title><ellipse class="cls-1" cx="203.16" cy="353.02" rx="155.31" ry="17.48"/><polygon class="cls-2" points="274.92 349.78 131.92 349.78 140.67 341.78 268.17 341.78 274.92 349.78"/><rect class="cls-3" x="131.92" y="349.78" width="143" height="9.5"/><rect class="cls-4" x="168.32" y="291.03" width="77.29" height="54.75"/><rect class="cls-5" x="168.32" y="291.03" width="77.29" height="17"/><rect class="cls-3" x="20" y="20" width="375.02" height="255"/><path class="cls-6" d="M264.24,933.21h375v226h20v-226a20,20,0,0,0-20-20h-375a20,20,0,0,0-20,20v226h20v-226Z" transform="translate(-244.24 -913.21)"/><path class="cls-4" d="M650.16,1167.24H244.24v29a20,20,0,0,0,20,20h375a20,20,0,0,0,20-20v-29h-9.1Z" transform="translate(-244.24 -913.21)"/><rect class="cls-6" y="235.5" width="415.02" height="19.53"/><rect class="cls-7" x="20" y="19.74" width="375.02" height="58.07"/><rect class="cls-8" x="73.86" y="31.48" width="222.7" height="17.07"/><rect class="cls-9" x="73.86" y="69.27" width="34.47" height="3.41"/><rect class="cls-10" x="73.86" y="90.79" width="110.4" height="3.41"/><rect class="cls-9" x="73.86" y="100.29" width="222.7" height="0.96"/><rect class="cls-9" x="73.86" y="103.83" width="222.7" height="0.96"/><rect class="cls-9" x="73.86" y="107.38" width="222.7" height="0.96"/><rect class="cls-11" x="73.86" y="123.02" width="198.43" height="3.41"/><rect class="cls-9" x="73.86" y="132.51" width="222.7" height="0.96"/><rect class="cls-9" x="73.86" y="136.06" width="222.7" height="0.96"/><rect class="cls-9" x="73.86" y="139.6" width="222.7" height="0.96"/><rect class="cls-9" x="73.86" y="110.92" width="222.7" height="0.96"/><rect class="cls-11" x="73.86" y="152.05" width="61.71" height="3.41"/><rect class="cls-9" x="73.86" y="161.55" width="222.7" height="0.96"/><rect class="cls-9" x="73.86" y="165.09" width="222.7" height="0.96"/><rect class="cls-9" x="73.86" y="168.63" width="222.7" height="0.96"/><rect class="cls-9" x="73.86" y="172.18" width="222.7" height="0.96"/><rect class="cls-11" x="73.86" y="185.12" width="211.76" height="3.41"/><rect class="cls-9" x="73.86" y="194.62" width="222.7" height="0.96"/><rect class="cls-9" x="73.86" y="198.17" width="222.7" height="0.96"/><rect class="cls-9" x="73.86" y="201.71" width="222.7" height="0.96"/><rect class="cls-9" x="73.86" y="205.25" width="222.7" height="0.96"/><rect class="cls-11" x="73.86" y="216.46" width="178.76" height="3.41"/><rect class="cls-9" x="73.86" y="225.96" width="222.7" height="0.96"/><rect class="cls-9" x="73.86" y="229.5" width="222.7" height="0.96"/><rect class="cls-9" x="73.86" y="233.04" width="222.7" height="0.96"/><rect class="cls-9" x="116.86" y="69.27" width="34.47" height="3.41"/><rect class="cls-9" x="160.19" y="69.27" width="34.47" height="3.41"/><rect class="cls-9" x="201.33" y="69.27" width="34.47" height="3.41"/><rect class="cls-11" x="344.57" y="34.14" width="42.48" height="8.54"/><rect class="cls-11" x="525.33" y="953.42" width="1.31" height="5" rx="0.49" ry="0.49" transform="translate(-668.91 -492.73) rotate(-31.79)"/><circle class="cls-12" cx="523.32" cy="951.61" r="2.94" transform="translate(-666.79 -495.23) rotate(-31.76)"/><path class="cls-11" d="M525.1,954.49a3.38,3.38,0,1,1,1.09-4.65A3.38,3.38,0,0,1,525.1,954.49Zm-3.09-5a2.49,2.49,0,1,0,3.43.81A2.49,2.49,0,0,0,522,949.5Z" transform="translate(-244.24 -913.21)"/><text class="cls-13" transform="translate(29.01 43.67)">G<tspan class="cls-14" x="9.36" y="0">o</tspan><tspan class="cls-15" x="15.84" y="0">o</tspan><tspan x="22.32" y="0">g</tspan><tspan class="cls-16" x="28.98" y="0">l</tspan><tspan class="cls-14" x="31.64" y="0">e</tspan></text><path class="cls-17" d="M703.53,1265.58l-2.14,1.74-6.41,5.2a16.33,16.33,0,0,1-23-2.4l-61.69-76,7.33-6.17,10.52-8.87,9.89-8.33,5.66-4.77,62.2,76.65A16.34,16.34,0,0,1,703.53,1265.58Z" transform="translate(-244.24 -913.21)"/><path class="cls-18" d="M638.43,1171.17l-9.94,8.28-10.57,8.8-0.27-.32-16.3-19.54-5.59-6.7a16.61,16.61,0,0,1-7.28-2.79c-5.48-4.08-3.59-11.11,1.76-15.46l5-4.06,3.54-2.87c5.25-4.26,12.32-4.73,15.94.93a16.74,16.74,0,0,1,2.27,7.89l5,6.05,16,19.35Z" transform="translate(-244.24 -913.21)"/><path class="cls-17" d="M628,1003a112.47,112.47,0,0,0-158-16.44l-0.93.77A112.33,112.33,0,0,0,611.58,1161c0.32-.26.64-0.52,0.95-0.79a110.85,110.85,0,0,0,9.49-8.83A112.51,112.51,0,0,0,628,1003Zm-34.37,134.49c-0.23.21-.47,0.4-0.7,0.59a82.79,82.79,0,0,1-105-128c0.23-.2.45-0.39,0.68-0.57A82.79,82.79,0,0,1,593.66,1137.47Z" transform="translate(-244.24 -913.21)"/><path class="cls-19" d="M701.39,1267.32l-6.41,5.2a16.33,16.33,0,0,1-23-2.4l-61.69-76,7.33-6.17-16.3-19.54A112.33,112.33,0,0,1,469.08,987.31l9.44,11.37,9.43,11.37,105.71,127.42,1.59,1.91,7.84,9.46,9.44,11.37,15.64,18.85,0.32,0.39Z" transform="translate(-244.24 -913.21)"/></svg>