<svg id="Calque_8" data-name="Calque 8" xmlns="http://www.w3.org/2000/svg" viewBox="0 0 312.25 315.22"><defs><style>.cls-1{fill:#0a2f41;}.cls-2{fill:#606060;}.cls-3{fill:#eaeaea;}.cls-4{fill:#f25757;}.cls-5{fill:#e2ea34;}.cls-6{fill:#2fd82f;}</style></defs><title>guide</title><path class="cls-1" d="M1297.88,1058.83a156.19,156.19,0,0,1-174.27,155.08,154.21,154.21,0,0,1-24.54-4.85,156.16,156.16,0,0,1,21.72-305h0a155.63,155.63,0,0,1,20.95-1.4c3.05,0,6.09.09,9.1,0.26q7,0.41,13.84,1.42h0A156.16,156.16,0,0,1,1297.88,1058.83Z" transform="translate(-985.63 -899.74)"/><path class="cls-2" d="M1159.9,1098.19v115.72a157.3,157.3,0,0,1-36.29,0V1098.19a6.65,6.65,0,0,1,6.63-6.63h23A6.64,6.64,0,0,1,1159.9,1098.19Z" transform="translate(-985.63 -899.74)"/><rect class="cls-3" x="96.63" width="119" height="246.81" rx="12" ry="12"/><circle class="cls-4" cx="156.13" cy="50.68" r="26.13"/><circle class="cls-5" cx="156.13" cy="123.4" r="26.13"/><circle class="cls-6" cx="156.13" cy="196.12" r="26.13"/></svg>