<svg id="Calque_8" data-name="Calque 8" xmlns="http://www.w3.org/2000/svg" viewBox="0 0 753.18 612.73"><defs><style>.cls-1,.cls-2,.cls-27{fill:#fff;}.cls-1,.cls-12,.cls-14,.cls-15,.cls-16,.cls-17,.cls-18,.cls-19,.cls-20,.cls-21,.cls-3,.cls-4,.cls-6,.cls-9{fill-rule:evenodd;}.cls-3,.cls-5{fill:#c27629;}.cls-4,.cls-8{fill:#d8924c;}.cls-6{fill:#4d6e6e;opacity:0.2;}.cls-7{fill:#d18334;}.cls-9{fill:#e6e6e6;}.cls-10,.cls-16{fill:#313c50;}.cls-11{fill:#ffcd69;}.cls-12,.cls-13{fill:#a8610a;}.cls-14{fill:#814743;}.cls-15,.cls-22{fill:#fcdabe;}.cls-17{fill:#f04152;}.cls-18{fill:#dbac86;}.cls-19{fill:#4d4d4d;}.cls-20{fill:#ff386a;}.cls-21{fill:#d99990;}.cls-23{fill:#f8c8b4;}.cls-24,.cls-33{fill:#29c5e5;}.cls-25{fill:none;}.cls-26,.cls-28,.cls-29,.cls-30,.cls-31,.cls-32{fill:#393f3f;}.cls-26{opacity:0.15;}.cls-27{opacity:0.31;}.cls-28{opacity:0.35;}.cls-29{opacity:0.1;}.cls-30{opacity:0.5;}.cls-31{opacity:0.05;}.cls-33{font-size:27.01px;font-family:Helvetica;font-weight:700;}</style></defs><title>happy</title><path class="cls-1" d="M1114.25,2002.18l150,63.81a6.75,6.75,0,0,1,3.56,8.83h0a6.75,6.75,0,0,1-8.83,3.56l-150-63.81a6.75,6.75,0,0,1-3.56-8.83h0A6.75,6.75,0,0,1,1114.25,2002.18Z" transform="translate(-622.27 -1521.15)"/><path class="cls-1" d="M1132.11,2013.2h0a10.81,10.81,0,0,1,5.7,14.14l-5.52,13a10.81,10.81,0,0,1-14.14,5.7h0a10.81,10.81,0,0,1-5.7-14.14l5.52-13A10.81,10.81,0,0,1,1132.11,2013.2Z" transform="translate(-622.27 -1521.15)"/><path class="cls-1" d="M1250.23,2063.44h0a10.81,10.81,0,0,1,5.7,14.14l-5.52,13a10.81,10.81,0,0,1-14.14,5.7h0a10.81,10.81,0,0,1-5.7-14.14l5.52-13A10.81,10.81,0,0,1,1250.23,2063.44Z" transform="translate(-622.27 -1521.15)"/><path class="cls-1" d="M1188.8,2035.16h0a10.81,10.81,0,0,1,5.7,14.14l-5.52,13a10.81,10.81,0,0,1-14.14,5.7h0a10.81,10.81,0,0,1-5.7-14.14l5.52-13A10.81,10.81,0,0,1,1188.8,2035.16Z" transform="translate(-622.27 -1521.15)"/><rect class="cls-2" x="1171.65" y="1964.6" width="89.13" height="12.19" transform="translate(-1695.53 797.6) rotate(-66.96)"/><path class="cls-2" d="M1363,1927.6l-13.55,31.87a36.53,36.53,0,0,1-47.79,19.27l-150.51-64a36.53,36.53,0,0,1-19.27-47.79l13.55-31.87,7.36,3.13-13.55,31.87a28.53,28.53,0,0,0,15,37.3l150.51,64a28.53,28.53,0,0,0,37.3-15l13.55-31.87Z" transform="translate(-622.27 -1521.15)"/><path class="cls-3" d="M1211,1946.17l26.52,11.28,59.79-140.57a14.45,14.45,0,0,0-7.62-18.9h0a14.45,14.45,0,0,0-18.9,7.62Z" transform="translate(-622.27 -1521.15)"/><path class="cls-4" d="M1173,1891.76l130,55.3a17.65,17.65,0,0,1,9.31,23.09h0a17.66,17.66,0,0,1-23.09,9.31l-130-55.3a17.66,17.66,0,0,1-9.31-23.09h0A17.66,17.66,0,0,1,1173,1891.76Z" transform="translate(-622.27 -1521.15)"/><rect class="cls-5" x="1173.28" y="1997.29" width="50.99" height="28.82" transform="translate(-1743.9 806.35) rotate(-66.96)"/><path class="cls-4" d="M1360.4,1763.47L1344,1864.53c-3.56,21.91-33,31.46-53.4,22.8l-65.9-28c-20.35-8.66-33.93-36.53-20.62-54.29l61.41-81.92C1294.77,1684,1362.24,1717.16,1360.4,1763.47Z" transform="translate(-622.27 -1521.15)"/><path class="cls-3" d="M1358.41,1911l12.41,5.28a7.65,7.65,0,0,1,4,10l-4.59,10.79a7.64,7.64,0,0,1-10,4l-12.41-5.28a7.64,7.64,0,0,1-4-10l4.59-10.79A7.64,7.64,0,0,1,1358.41,1911Z" transform="translate(-622.27 -1521.15)"/><path class="cls-3" d="M1148.2,1821.58l12.41,5.28a7.64,7.64,0,0,1,4,10l-4.59,10.79a7.65,7.65,0,0,1-10,4l-12.41-5.28a7.64,7.64,0,0,1-4-10l4.59-10.79A7.64,7.64,0,0,1,1148.2,1821.58Z" transform="translate(-622.27 -1521.15)"/><path class="cls-6" d="M981.14,2133.88c197.66,0,358.86-6.05,358.86-13.48s-161.21-13.48-358.86-13.48-358.86,6.05-358.86,13.48S783.48,2133.88,981.14,2133.88Z" transform="translate(-622.27 -1521.15)"/><rect class="cls-7" x="23.86" y="568.62" width="123.98" height="14.54"/><rect class="cls-7" x="179.41" y="568.62" width="123.98" height="14.54"/><polygon class="cls-4" points="7.69 598.36 68.28 391.72 85.85 391.72 25.26 598.36 7.69 598.36"/><polygon class="cls-4" points="164.01 598.36 103.42 391.72 85.85 391.72 146.44 598.36 164.01 598.36"/><polygon class="cls-4" points="165.81 598.36 226.4 391.72 243.97 391.72 183.38 598.36 165.81 598.36"/><polygon class="cls-4" points="322.14 598.36 261.55 391.72 243.97 391.72 304.56 598.36 322.14 598.36"/><rect class="cls-5" x="55.74" y="393.19" width="60.23" height="14.54"/><polygon class="cls-3" points="50.05 453.88 68.28 391.72 85.85 391.72 67.62 453.88 50.05 453.88"/><polygon class="cls-3" points="121.65 453.88 103.42 391.72 85.85 391.72 104.08 453.88 121.65 453.88"/><polygon class="cls-3" points="208.17 453.88 226.4 391.72 243.97 391.72 225.75 453.88 208.17 453.88"/><polygon class="cls-3" points="279.78 453.88 261.55 391.72 243.97 391.72 262.2 453.88 279.78 453.88"/><rect class="cls-5" x="212.79" y="393.19" width="60.23" height="14.54"/><rect class="cls-7" x="14.87" y="370.15" width="273.12" height="23.36"/><rect class="cls-8" x="104.72" y="370.15" width="210.23" height="23.36"/><polygon class="cls-9" points="158.22 305.98 197.9 299.25 222.22 329.79 145.33 342.83 158.22 305.98"/><path class="cls-1" d="M687.75,1727.25l187-31.72a9.73,9.73,0,0,1,11.19,7.95l17.26,101.79a9.73,9.73,0,0,1-7.95,11.19l-187,31.72a9.74,9.74,0,0,1-11.19-7.95l-17.26-101.78A9.74,9.74,0,0,1,687.75,1727.25Z" transform="translate(-622.27 -1521.15)"/><rect class="cls-10" x="692.43" y="1716.27" width="196.24" height="99.66" transform="translate(-906.47 -1364.09) rotate(-9.63)"/><circle class="cls-2" cx="891.82" cy="1808.34" r="1.26" transform="translate(-911.7 -1346.86) rotate(-9.61)"/><circle class="cls-2" cx="886.97" cy="1809.16" r="1.26" transform="translate(-912.24 -1347.42) rotate(-9.62)"/><circle class="cls-2" cx="882.11" cy="1809.98" r="1.26" transform="translate(-912.47 -1348.2) rotate(-9.62)"/><path class="cls-1" d="M690.18,1866.64l228.29-38.72a5.18,5.18,0,0,1,6,4.23h0a5.18,5.18,0,0,1-4.23,6l-228.29,38.72a5.18,5.18,0,0,1-6-4.23h0A5.18,5.18,0,0,1,690.18,1866.64Z" transform="translate(-622.27 -1521.15)"/><path class="cls-9" d="M924.42,1832.15a5.18,5.18,0,0,1-4.23,6l-228.29,38.72a5.18,5.18,0,0,1-6-4.23Z" transform="translate(-622.27 -1521.15)"/><path class="cls-11" d="M762.7,1757.67l-34.52,57.8-7.21-4.31,34.52-57.8,6.59-.8,0.62,5.11h0Zm-7.21-4.31,2.78-4.65,3.81,3.85-6.59.8h0ZM801.26,1804l-45.15-45.55,6-5.91,45.15,45.55,0.78,4.83-6.74,1.08h0Zm6.74-1.08-2.61,5.25-4.13-4.17,6.74-1.08h0ZM875.69,1667L808,1802.94l-7.52-3.74,67.7-135.95,7.52,3.75h0Zm18-45.5,0.1,57.5-46-22.92Z" transform="translate(-622.27 -1521.15)"/><polygon class="cls-9" points="34.81 301.05 62.37 313.44 40.85 352.86 19.61 343.32 34.81 301.05"/><rect class="cls-2" x="669.89" y="1810.59" width="3.29" height="32.63" transform="translate(-1892.35 169.14) rotate(-65.79)"/><polygon class="cls-9" points="36.27 298.11 63.6 310.39 64.37 303.99 40.56 293.28 36.27 298.11"/><polygon class="cls-12" points="58.35 320.82 47.13 341.36 24.05 330.98 31.96 308.96 58.35 320.82"/><circle class="cls-2" cx="662.65" cy="1846.68" r="9.57" transform="translate(-1915.64 172.67) rotate(-65.79)"/><circle class="cls-2" cx="662.65" cy="1846.68" r="5.37" transform="translate(-1915.64 172.67) rotate(-65.79)"/><circle class="cls-13" cx="662.65" cy="1846.68" r="4.59" transform="translate(-1915.63 172.59) rotate(-65.79)"/><path class="cls-14" d="M1013.6,1707.79c-53.87-9.39-47.53-73.86-39.49-104.75,15-57.58,72.45-70.65,90.14-46.42,23,4.48,28.16,35.09,24.4,68.17C1083.66,1668.82,1058,1715.52,1013.6,1707.79Z" transform="translate(-622.27 -1521.15)"/><path class="cls-15" d="M894.4,1569l23,69.05c7.47,14.8,26.24,12.5,18.72-6.26l-27-66.94Z" transform="translate(-622.27 -1521.15)"/><path class="cls-16" d="M969.68,1714.13l-50.61-70.76c-5.55-7.76,12.63-16.33,18.14-9.56L991,1693C1006.26,1709.82,981.1,1732.42,969.68,1714.13Z" transform="translate(-622.27 -1521.15)"/><polygon class="cls-15" points="435.5 173.37 397.51 301.95 368.53 296.31 338.51 290.45 355.62 156.7 435.5 173.37"/><path class="cls-16" d="M1057,1712.72l-14.83,17.45-0.89,3.35L1030,1825.11l-69.72-13.27,6.74-93.41-0.41-9.16,6.79-13.64C1008.94,1714.48,1001.18,1726,1057,1712.72Z" transform="translate(-622.27 -1521.15)"/><path class="cls-16" d="M905.84,1611.89l10.58,27.75c8.13,14.45,29.92,13.57,21.56-4.83l-11-30.62-21.17,7.7h0Z" transform="translate(-622.27 -1521.15)"/><path class="cls-15" d="M1170.67,1627.84l-43.41,51.09c-12.48,10.91-29,1.73-15-12.84l45.06-50.21Z" transform="translate(-622.27 -1521.15)"/><path class="cls-16" d="M1049.55,1736.83l74.19-53.56c7.74-5.58-5.58-19.88-13.22-15.67l-72.77,41.64C1018,1720.53,1032.1,1749.49,1049.55,1736.83Z" transform="translate(-622.27 -1521.15)"/><path class="cls-17" d="M978,1677.94c-14.35,23.5-27.7,83.9-26.9,129l84.63,3.77c5.34-45.56,13.91-85.2,27.35-115.78l-23.74-4.63L1002.67,1759l-7.76-77.34Z" transform="translate(-622.27 -1521.15)"/><path class="cls-15" d="M1044.17,1639.07l-9,46.22c-5.64,29-41.17,21.43-35.64-6.95l9-46.22C1013.12,1608.55,1048.77,1615.5,1044.17,1639.07Z" transform="translate(-622.27 -1521.15)"/><path class="cls-18" d="M1044.17,1639.07l-5.7,29.23c-7.77,4-14.85,5.65-19.43,4.76s-10.5-5.11-16.22-11.7l5.7-29.23C1013.12,1608.55,1048.77,1615.5,1044.17,1639.07Z" transform="translate(-622.27 -1521.15)"/><path class="cls-15" d="M1020.46,1665.8c-11.6-2.26-32.56-25.28-35-52.89-2.51-27.87,19.28-62.9,56.21-55.7s44,47.85,31.17,72.74C1060.13,1654.6,1032.06,1668.06,1020.46,1665.8Z" transform="translate(-622.27 -1521.15)"/><path class="cls-19" d="M1004.38,1594a7.43,7.43,0,0,0,2.83,8.27c1.4-1.34,2.59-1,4.83-1.38C1008.76,1600.22,1004.67,1597.2,1004.38,1594Z" transform="translate(-622.27 -1521.15)"/><path class="cls-19" d="M999.79,1595a7.41,7.41,0,0,0,5.49,9.43l2.44-2.31C1004.43,1601.51,1000.07,1598.26,999.79,1595Z" transform="translate(-622.27 -1521.15)"/><path class="cls-19" d="M1021.93,1607.46c-1.77-4.14-14.59-6.22-16.78-2.7C1007.42,1597.65,1021.95,1601,1021.93,1607.46Z" transform="translate(-622.27 -1521.15)"/><path class="cls-19" d="M1062.34,1605.28a7.43,7.43,0,0,1-5.72,6.6c-0.8-1.77-2-1.92-4-3.09C1055.94,1609.42,1060.87,1608.15,1062.34,1605.28Z" transform="translate(-622.27 -1521.15)"/><path class="cls-19" d="M1066.2,1608a7.41,7.41,0,0,1-8.63,6.68l-1.4-3.06C1059.46,1612.24,1064.73,1610.86,1066.2,1608Z" transform="translate(-622.27 -1521.15)"/><path class="cls-19" d="M1041,1611.18c3.2-3.17,15.86-.28,16.57,3.8C1058.14,1607.54,1043.45,1605.14,1041,1611.18Z" transform="translate(-622.27 -1521.15)"/><path class="cls-20" d="M1007.14,1628.08c13.86,0.75,13.08,12.79,18,13.75s11.21-11.28,21.84-6C1039.15,1656.34,1009.63,1651.79,1007.14,1628.08Z" transform="translate(-622.27 -1521.15)"/><path class="cls-21" d="M1008.49,1628.4c4.8-.11,30.73,5.43,37.14,7.71C1037.21,1651.66,1011.67,1644.69,1008.49,1628.4Z" transform="translate(-622.27 -1521.15)"/><path class="cls-1" d="M1008.49,1628.4c4.8-.11,30.73,5.43,37.14,7.71C1038.39,1640.27,1012.79,1633.92,1008.49,1628.4Z" transform="translate(-622.27 -1521.15)"/><path class="cls-20" d="M1007.14,1628.08c7.06-2,34.06,3.19,39.84,7.77C1032.76,1635.74,1015,1630.3,1007.14,1628.08Z" transform="translate(-622.27 -1521.15)"/><ellipse class="cls-22" cx="983.97" cy="1608.24" rx="7.49" ry="12.96" transform="translate(-940.22 -1276.6) rotate(-12.21)"/><ellipse class="cls-22" cx="1076.93" cy="1626.36" rx="12.96" ry="7.49" transform="translate(-1495.77 79.18) rotate(-55.72)"/><path class="cls-14" d="M1076.42,1630.17c25.75-57.38-14.59-75.86-39.29-80.68-27.82-5.42-55.86,20.11-58.67,59.47,18.89-5.6,33.74-17.78,71.8-40.28-4.42,8.25-20.36,23-39.91,28.94,16.69,2.87,39.81-.26,57.43-14C1068.7,1600.2,1071.07,1618.58,1076.42,1630.17Z" transform="translate(-622.27 -1521.15)"/><path class="cls-18" d="M1025.58,1622.15c4.57,1,10.12-1.32,10.24-5.37C1037.33,1623.4,1031.27,1625.64,1025.58,1622.15Z" transform="translate(-622.27 -1521.15)"/><ellipse class="cls-23" cx="1053.29" cy="1621.35" rx="5.93" ry="8.2" transform="translate(-1361.94 823.75) rotate(-78.97)"/><ellipse class="cls-23" cx="1003.86" cy="1611.16" rx="5.93" ry="8.2" transform="translate(-1391.84 767.18) rotate(-78.97)"/><path class="cls-15" d="M984.87,2041.15c2.95,12.36,6.92,36.67,11.4,43.18,2.53,3.68,7.4,6.18,10.48,3.09,13.22-13.3,9.31-23.17,11.9-29.55,4.48-11-.55-15.29-15.75-21.21S981.87,2028.55,984.87,2041.15Z" transform="translate(-622.27 -1521.15)"/><path class="cls-15" d="M954.14,1844.81l40.09-4.15,4.18,38.35c-1.88.77-3.34,3.9-2.92,9.27l11.77,150.43-22.39,2.44Z" transform="translate(-622.27 -1521.15)"/><path class="cls-15" d="M976.82,1842.71l41.08-13.58,25.19,93c5.7,21.05-22.65,29-29.3,10.75l-17-46.76c-2.27-6.21-5.74-8.2-7.82-6.79Z" transform="translate(-622.27 -1521.15)"/><path class="cls-16" d="M951.23,1806.48c1.56,36.62,3.65,63.59,9.1,85.63l73.77-8.22c-1.69-27.43-1.19-51.8,1.95-74.41Z" transform="translate(-622.27 -1521.15)"/><path class="cls-17" d="M992.26,2074a25.81,25.81,0,0,0,4,10.32c6.55,9.51,12.78,1.94,16.87-5,5.45-9.28,3.47-16.44,5.51-21.44,4-9.9.37-14.35-11.43-19.45,8.31,7,4.42,16.84,1.74,29S996,2083.58,992.26,2074Z" transform="translate(-622.27 -1521.15)"/><polygon class="cls-15" points="394.58 396.4 461.42 344.52 478.04 357.93 414.75 419.18 394.58 396.4"/><path class="cls-15" d="M1106,1873.65c8.37-9.52,18.6-14.37,21.86-21.57,1.84-4.07,1.47-9.53-2.77-10.57-18.21-4.45-24.65,4-31.44,5.08-11.75,1.86-12.81,8.37-10,24.44S1099.09,1882.67,1106,1873.65Z" transform="translate(-622.27 -1521.15)"/><path class="cls-17" d="M1120.79,1860.35c3.13-2.69,5.7-5.27,7.05-8.27,4.76-10.52-4.94-11.94-13-11.85-10.76.13-15.87,5.52-21.2,6.36-10.56,1.67-12.48,7.09-10.75,19.83,1.7-10.74,12.13-12.49,24-16.49S1127.09,1852.25,1120.79,1860.35Z" transform="translate(-622.27 -1521.15)"/><path class="cls-15" d="M914.18,1556.72c-0.91-6.39-4.64-12.72-5-16.15s-8.47,9.93-11.71,14.13S914.76,1560.57,914.18,1556.72Z" transform="translate(-622.27 -1521.15)"/><path class="cls-15" d="M904.14,1521.17h0a3,3,0,0,0-2.61,3.23l2.33,21.75a3,3,0,0,0,3.23,2.61h0a3,3,0,0,0,2.61-3.23l-2.33-21.75A3,3,0,0,0,904.14,1521.17Z" transform="translate(-622.27 -1521.15)"/><path class="cls-15" d="M908.54,1549.22A13.53,13.53,0,1,1,893.92,1572c-6.29-4-8.89-15.3-5.84-20.34C890.53,1548.36,902.25,1545.19,908.54,1549.22Z" transform="translate(-622.27 -1521.15)"/><path class="cls-18" d="M909.64,1559.37c2.16,2.65,1.3,6.61-1.93,8.84s-7.59,1.89-9.75-.76-1.3-6.61,1.93-8.84S907.48,1556.72,909.64,1559.37Z" transform="translate(-622.27 -1521.15)"/><path class="cls-15" d="M911.51,1559.72c2,2.69.77,6.8-2.85,9.18s-8.21,2.12-10.26-.57-0.77-6.8,2.85-9.18S909.46,1557,911.51,1559.72Z" transform="translate(-622.27 -1521.15)"/><path class="cls-15" d="M891.59,1524.31h0a3,3,0,0,0-1.69,3.79l7.82,20.43a3,3,0,0,0,3.79,1.69h0a3,3,0,0,0,1.69-3.79L895.38,1526A3,3,0,0,0,891.59,1524.31Z" transform="translate(-622.27 -1521.15)"/><path class="cls-18" d="M891.84,1549.57l4.63,7.33c2.07,3.29,7,.15,5-3.14l-4.63-7.34C894.74,1543.15,889.77,1546.28,891.84,1549.57Z" transform="translate(-622.27 -1521.15)"/><path class="cls-15" d="M892.28,1548.44l4.63,7.34c2.07,3.29,7,.15,5-3.14l-4.63-7.34C895.18,1542,890.21,1545.15,892.28,1548.44Z" transform="translate(-622.27 -1521.15)"/><path class="cls-18" d="M900,1540.31l11,11.12c1.33,1.36,1.09,4.53-.27,5.86h0a3.46,3.46,0,0,1-4.88,0l-8.12-8.17C892.23,1543.8,896.55,1536.87,900,1540.31Z" transform="translate(-622.27 -1521.15)"/><path class="cls-15" d="M899.81,1540.83l12.74,13c4.16,4.25,0,9.19-3.36,5.73l-11.58-11.85C894,1544,896.44,1537.39,899.81,1540.83Z" transform="translate(-622.27 -1521.15)"/><path class="cls-18" d="M887.82,1554.23l4,6.4c1.81,2.87,6.15.13,4.34-2.74l-4-6.4C890.35,1548.63,886,1551.36,887.82,1554.23Z" transform="translate(-622.27 -1521.15)"/><path class="cls-15" d="M888.2,1553.24l4,6.4c1.81,2.87,6.15.13,4.34-2.74l-4-6.4C890.73,1547.64,886.4,1550.37,888.2,1553.24Z" transform="translate(-622.27 -1521.15)"/><path class="cls-15" d="M1157,1607.72c3.72-5.28,9.92-9.21,11.81-12.1s3,12.7,4,17.91S1154.77,1610.89,1157,1607.72Z" transform="translate(-622.27 -1521.15)"/><path class="cls-15" d="M1182.15,1580.63h0a3,3,0,0,1,.85,4.07L1171,1603a3,3,0,0,1-4.07.85h0a3,3,0,0,1-.85-4.07l12-18.31A3,3,0,0,1,1182.15,1580.63Z" transform="translate(-622.27 -1521.15)"/><path class="cls-15" d="M1165.47,1603.61a13.53,13.53,0,1,0,2.66,26.92c7.43-.73,14.88-9.58,14.46-15.45C1181.9,1611,1172.91,1602.88,1165.47,1603.61Z" transform="translate(-622.27 -1521.15)"/><path class="cls-18" d="M1159.87,1612.15c-3.13,1.38-4.16,5.29-2.31,8.75s5.9,5.14,9,3.76,4.16-5.29,2.31-8.75S1163,1610.77,1159.87,1612.15Z" transform="translate(-622.27 -1521.15)"/><path class="cls-15" d="M1158,1611.61c-3,1.47-3.78,5.71-1.64,9.47s6.35,5.62,9.4,4.16,3.78-5.71,1.64-9.47S1161.1,1610.15,1158,1611.61Z" transform="translate(-622.27 -1521.15)"/><path class="cls-15" d="M1191.9,1589.14h0a3,3,0,0,1-.22,4.15l-16.26,14.64a3,3,0,0,1-4.15-.22h0a3,3,0,0,1,.22-4.15l16.26-14.64A3,3,0,0,1,1191.9,1589.14Z" transform="translate(-622.27 -1521.15)"/><path class="cls-18" d="M1180.18,1611.52l-7.46,4.43c-3.34,2-6.34-3.07-3-5.05l7.46-4.43C1180.52,1604.48,1183.52,1609.54,1180.18,1611.52Z" transform="translate(-622.27 -1521.15)"/><path class="cls-15" d="M1180.3,1610.31l-7.46,4.43c-3.34,2-6.34-3.07-3-5.05l7.46-4.43C1180.65,1603.27,1183.65,1608.33,1180.3,1610.31Z" transform="translate(-622.27 -1521.15)"/><path class="cls-18" d="M1177.12,1599.55l-14.86,4.9c-1.8.6-3,3.54-2.43,5.34h0a3.46,3.46,0,0,0,4.37,2.18l11-3.58C1182.46,1606.2,1181.77,1598.07,1177.12,1599.55Z" transform="translate(-622.27 -1521.15)"/><path class="cls-15" d="M1177.07,1600.11l-17.26,5.78c-5.63,1.89-4.21,8.18.38,6.63l15.71-5.28C1180.79,1605.59,1181.63,1598.58,1177.07,1600.11Z" transform="translate(-622.27 -1521.15)"/><path class="cls-18" d="M1181.64,1617.5l-6.51,3.86c-2.92,1.73-5.53-2.68-2.62-4.41l6.51-3.86C1181.94,1611.36,1184.56,1615.77,1181.64,1617.5Z" transform="translate(-622.27 -1521.15)"/><path class="cls-15" d="M1181.75,1616.44l-6.51,3.86c-2.92,1.73-5.53-2.68-2.62-4.41l6.51-3.86C1182,1610.3,1184.67,1614.71,1181.75,1616.44Z" transform="translate(-622.27 -1521.15)"/><path class="cls-16" d="M1145.54,1662l-20.87,21.13c-13.26,9.95-32.85.35-17.79-13.12l22.39-23.59,16.27,15.58h0Z" transform="translate(-622.27 -1521.15)"/><path class="cls-24" d="M1174.42,1898.38l0.32,0.23a1.12,1.12,0,0,1-.14-0.09Z" transform="translate(-622.27 -1521.15)"/><path class="cls-24" d="M1174.74,1898.61l0.15,0.11,0,0Z" transform="translate(-622.27 -1521.15)"/><path class="cls-24" d="M1175,1898.83l0.84,0.58-0.53-.35-0.2-.14-0.26-.2A0.72,0.72,0,0,0,1175,1898.83Z" transform="translate(-622.27 -1521.15)"/><path class="cls-25" d="M1176.4,1899.76l-0.19-.12-0.33-.23,0.52,0.35" transform="translate(-622.27 -1521.15)"/><path class="cls-24" d="M1177.82,1900.64l0.4,0.24c-0.14-.07-0.27-0.15-0.4-0.23h0Z" transform="translate(-622.27 -1521.15)"/><path class="cls-24" d="M1184.1,1903.69L1185,1904c-0.19-.06-0.39-0.13-0.58-0.21l-0.08,0Z" transform="translate(-622.27 -1521.15)"/><path class="cls-24" d="M1186,1904.36l-0.18-.06h0l0.07,0,0.49,0.17Z" transform="translate(-622.27 -1521.15)"/><path class="cls-24" d="M1187.6,1904.86l0.11,0h0Z" transform="translate(-622.27 -1521.15)"/><path class="cls-24" d="M1188.79,1905.18c0.37,0.1.75,0.19,1.12,0.27l-0.69-.16Z" transform="translate(-622.27 -1521.15)"/><path class="cls-24" d="M1190.78,1905.63l0.24,0.05h0Z" transform="translate(-622.27 -1521.15)"/><path class="cls-24" d="M1191.17,1905.71l0.49,0.09-0.25,0Z" transform="translate(-622.27 -1521.15)"/><path class="cls-24" d="M1191.66,1905.8q0.75,0.14,1.5.24c-0.34,0-.67-0.09-1-0.15l-0.35-.06Z" transform="translate(-622.27 -1521.15)"/><path class="cls-24" d="M1193.21,1906c0.47,0.07.95,0.13,1.42,0.18l-0.72-.07-0.7-.1h0Z" transform="translate(-622.27 -1521.15)"/><path class="cls-24" d="M1202.25,1906.31h-0.18l-0.45,0a0,0,0,0,1,0,0Z" transform="translate(-622.27 -1521.15)"/><path class="cls-24" d="M1203.38,1906.22l0.41,0-0.31,0h-0.1Z" transform="translate(-622.27 -1521.15)"/><path class="cls-24" d="M1205.29,1906a7,7,0,0,0,.78-0.13l-0.18,0-1,.15A2.25,2.25,0,0,0,1205.29,1906Z" transform="translate(-622.27 -1521.15)"/><path class="cls-24" d="M1236.92,1871.58c0,0.33,0,.65-0.05,1a35.91,35.91,0,0,1-.61,4.64c-0.07.36-.15,0.72-0.24,1.07-0.17.75-.37,1.49-0.59,2.22a0.64,0.64,0,0,0,0,.11l-0.33,1c-0.12.37-.25,0.73-0.39,1.09v0l-0.39,1c-0.1.24-.2,0.48-0.31,0.72l-0.25.58-0.28.58-0.18.37-0.38.75-0.33.6h0l-0.35.61-0.23.39c-0.13.23-.27,0.45-0.4,0.66s-0.4.63-.61,0.94-0.31.45-.47,0.68-0.29.41-.44,0.61l-0.12.15c-0.08.13-.18,0.25-0.27,0.37a33,33,0,0,1-2.33,2.73c-0.28.31-.58,0.62-0.89,0.92h0l-0.65.62c-0.24.24-.49,0.46-0.74,0.68s-0.52.46-.79,0.69l-0.7.58q-1.2,1-2.49,1.83l-0.64.42c-0.41.27-.83,0.53-1.26,0.77q-0.3.19-.6,0.36l-0.2.12h0l-0.2.12a37.6,37.6,0,0,1-3.61,1.76,0.05,0.05,0,0,0,0,0h0l0,0h0l-0.09,0-0.1,0a0.06,0.06,0,0,1-.05,0c-0.29.13-.59,0.25-0.88,0.35s-0.44.18-.66,0.25l-0.81.29-0.15,0-0.16.05-0.79.25c-0.22.08-.44,0.14-0.67,0.2s-0.42.13-.64,0.18c-0.42.12-.83,0.22-1.25,0.32h-0.05c-0.32.08-.65,0.15-1,0.21a1.38,1.38,0,0,1-.29.06l-0.3.06-0.47.09-3.14-1.34-2.48-1.05-5.6-2.38-21.86-9.3a17.41,17.41,0,0,0-5.06-1.3c-0.54-.06-1.08-0.09-1.62-0.1l-0.36-.48a0.21,0.21,0,0,1,0-.08l-0.3-.41a0.05,0.05,0,0,1,0,0,2.14,2.14,0,0,1-.13-0.19l-0.17-.25h0l-0.05-.08c-0.26-.38-0.51-0.76-0.75-1.15-0.09-.14-0.18-0.28-0.26-0.43l-0.19-.31-0.36-.62c-0.26-.46-0.51-0.92-0.75-1.39a2.56,2.56,0,0,1-.12-0.23l-0.21-.41c-0.07-.13-0.13-0.26-0.19-0.4s-0.26-.55-0.39-0.83-0.35-.81-0.52-1.21-0.33-.84-0.49-1.26c-0.29-.79-0.54-1.59-0.77-2.4v0c0-.15-0.09-0.3-0.13-0.45a3.13,3.13,0,0,1-.12-0.44c-0.1-.37-0.19-0.74-0.27-1.12s-0.16-.7-0.23-1.05c0,0,0-.09,0-0.13l-0.15-.82c-0.09-.52-0.16-1-0.22-1.56,0-.31-0.07-0.61-0.1-0.91s-0.07-.75-0.09-1.13c-0.07-.9-0.09-1.8-0.07-2.7,0-.25,0-0.5,0-0.74,0-.07,0-0.14,0-0.21a34.31,34.31,0,0,1,.61-5.31c0-.15,0-0.31.08-0.46s0.12-.58.19-0.87a34.53,34.53,0,0,1,2.69-7.53l0.41-.8,0.42-.79c0.43-.78.89-1.55,1.4-2.3l0.51-.75c0.51-.75,1.06-1.48,1.64-2.18l0.59-.7,0.61-.69c0.41-.45.83-0.9,1.27-1.33,0.22-.22.44-0.44,0.67-0.65s0.45-.43.68-0.63l0.71-.62c0.47-.41,1-0.81,1.47-1.19l0.61-.46a2.47,2.47,0,0,1,.26-0.19l0.62-.45c0.54-.37,1.1-0.74,1.67-1.09s1.08-.66,1.64-1l0.41-.22,0.28-.15,0.68-.35,0.14-.07c0.29-.15.59-0.29,0.88-0.42l0.59-.27c0.46-.21.92-0.4,1.38-0.58s0.74-.29,1.11-0.43l0.29-.11,0.87-.29,0.89-.28c0.34-.11.67-0.2,1-0.29s0.5-.14.76-0.21l0.77-.18,0.63-.14,1.26-.25,0.19,0c0.42-.08.86-0.14,1.28-0.21h0.1l1.31-.15,0.76-.08,0.75-.07c0.54,0,1.09-.06,1.64-0.07H1196c0.64,0,1.29,0,2,0h0.18l0.86,0.05c0.34,0,.69,0,1,0.07s0.56,0,.84.07l1.11,0.13,1.17,0.16q1.75,0.27,3.48.69l0.77,0.2a40.48,40.48,0,0,1,7.65,2.85c1,0.49,2,1,3,1.63l1.18,0.73,0.48,0.31q1,0.67,2,1.4c0.42,0.31.82,0.65,1.22,1l0.58,0.47c0.25,0.21.49,0.41,0.73,0.63s0.47,0.42.71,0.65,0.69,0.65,1,1,0.67,0.69,1,1.05l0.33,0.36,0.32,0.36c0.22,0.24.42,0.49,0.63,0.74l0.58,0.71c0.22,0.27.43,0.54,0.64,0.82,0.05,0.08.1,0.14,0.16,0.22l0.39,0.52h0a1.65,1.65,0,0,1,.16.24c0.1,0.13.2,0.28,0.3,0.42l0.18,0.26,0.47,0.72,0.18,0.28a37.14,37.14,0,0,1,4.14,9.08c0.13,0.42.25,0.84,0.35,1.26a3.28,3.28,0,0,1,.12.42h0A35.45,35.45,0,0,1,1236.92,1871.58Z" transform="translate(-622.27 -1521.15)"/><path class="cls-26" d="M1174.74,1898.61l-0.32-.23,0.18,0.14,0.07,0,0.13,0.09Zm0.3,0.22,0.11,0.09,0.2,0.14,0.53,0.35Zm2.78,1.81-0.07,0,0.07,0c0.13,0.08.26,0.16,0.4,0.23Zm59-40-0.06-.22c-0.11-.41-0.23-0.81-0.36-1.22a37.85,37.85,0,0,0-4.13-9,38.76,38.76,0,0,0-2.47-3.5,41,41,0,0,0-11.17-9.79c-0.79-.48-1.6-0.93-2.43-1.34a41.53,41.53,0,0,0-9-3.39l-0.38-.1a44.18,44.18,0,0,0-4.79-.88c-1-.13-2-0.22-3-0.27l-1-.06c-1.29,0-2.59,0-3.87.06a40.33,40.33,0,0,0-17.21,5c-0.56.31-1.14,0.65-1.69,1a36.7,36.7,0,0,0-11.84,51.33c0.46,0.73.94,1.27,1.44,2,0.42,0,.85-0.23,1.28-0.23h0.16a0.6,0.6,0,0,1-.36-0.3c-0.12-.16-0.24-0.23-0.35-0.4,0,0,0,0,0,0l-0.13-.17-0.17-.24-0.06-.07c-0.26-.38-0.51-0.76-0.75-1.15-0.09-.14-0.18-0.28-0.26-0.43-0.19-.31-0.37-0.62-0.55-0.93s-0.52-.93-0.75-1.39l-0.12-.23-0.21-.41c-0.07-.13-0.13-0.26-0.19-0.4s-0.26-.55-0.39-0.83-0.35-.81-0.52-1.21-0.33-.84-0.49-1.26c-0.29-.8-0.54-1.6-0.77-2.4-0.05-.16-0.1-0.32-0.14-0.48a3.13,3.13,0,0,1-.12-0.44c-0.1-.37-0.19-0.74-0.27-1.12s-0.16-.7-0.23-1.05c0,0,0-.09,0-0.13l-0.15-.82c-0.09-.52-0.16-1-0.22-1.56,0-.31-0.07-0.61-0.1-0.91s-0.07-.75-0.09-1.13c-0.06-.9-0.08-1.8-0.07-2.7,0-.32,0-0.63,0-0.95s0-.89.08-1.33,0.06-.77.11-1.16l0-.24a0.17,0.17,0,0,1,0-.07,0.58,0.58,0,0,1,0-.13c0-.36.08-0.7,0.14-1.06s0.11-.68.17-1l0.06-.3c0.08-.45.17-0.89,0.27-1.33,0.15-.65.32-1.3,0.51-1.93,0.12-.4.24-0.8,0.37-1.19l0.42-1.18c0.15-.4.3-0.78,0.46-1.17s0.33-.77.5-1.15,0.28-.61.43-0.91l0.41-.8,0.42-.79c0.44-.78.91-1.55,1.4-2.3l0.51-.75c0.52-.74,1.07-1.47,1.64-2.18l0.59-.7,0.61-.69c0.41-.45.83-0.9,1.27-1.33,0.22-.22.44-0.44,0.67-0.65s0.45-.43.68-0.63l0.71-.62c0.47-.41,1-0.81,1.47-1.19l0.61-.46a2.47,2.47,0,0,1,.26-0.19l0.62-.45c0.54-.37,1.1-0.74,1.67-1.09s1.09-.66,1.64-1l0.41-.23,0.28-.15,0.4-.2,0.28-.15,0.14-.07,0.3-.13,0.58-.29,0.59-.27c0.46-.21.92-0.4,1.38-0.58s0.74-.29,1.11-0.43l0.29-.11,0.87-.29,0.89-.28,0.51-.15,0.88-.25,0.38-.1c0.26-.07.51-0.13,0.77-0.18l0.63-.14,0.34-.07,0.09,0,0.09,0,0.74-.14c0.49-.08,1-0.17,1.47-0.24h0.1l0.65-.08c0.35,0,.7-0.09,1-0.11l0.38,0,0.37,0,0.38,0,0.72,0a5.25,5.25,0,0,1,.56,0l0.36,0c0.12,0,.24-0.05.36-0.05,0.64,0,1.29,0,2,0h0.18c0.29,0,.57.08,0.86,0.1s0.69,0.06,1,.09,0.56,0.05.84,0.08l1.11,0.13,1.17,0.17q1.75,0.27,3.48.69l0.77,0.2a40.49,40.49,0,0,1,7.65,2.85c1,0.49,2,1,3,1.63l1.18,0.73,0.48,0.31c0.67,0.44,1.32.92,2,1.4l1.22,1,0.66,0.54,0.65,0.56c0.24,0.2.47,0.42,0.71,0.65s0.69,0.65,1,1,0.68,0.69,1,1.05q0.18,0.18.33,0.36l0.32,0.36c0.22,0.24.42,0.49,0.63,0.74l0.58,0.71c0.22,0.27.43,0.54,0.64,0.82a1.8,1.8,0,0,0,.06.22,1.1,1.1,0,0,1,.29.52v0a1.55,1.55,0,0,0,.26.22c0.1,0.13.25,0.28,0.35,0.42s0.15,0.17.21,0.26c0.16,0.24.32,0.47,0.48,0.72l0.19,0.28a37.15,37.15,0,0,1,4.14,9.08c0.13,0.42.2,0.84,0.3,1.26a1.23,1.23,0,0,1,.07.42h0a30.21,30.21,0,0,1,1.09,10c0,0.33,0,.65,0,1a35.89,35.89,0,0,1-.6,4.64c-0.07.36-.14,0.72-0.23,1.07s-0.12.54-.19,0.81-0.19.7-.29,1.05c0,0.12-.07.24-0.11,0.36a0.63,0.63,0,0,0,0,.11c0,0.16-.1.32-0.15,0.48l-0.18.52c-0.07.21-.14,0.42-0.22,0.64s-0.11.3-.17,0.45v0l-0.18.48a0.13,0.13,0,0,0,0,.07,3.78,3.78,0,0,1-.18.42c-0.1.24-.2,0.48-0.31,0.72l-0.25.58c-0.08.19-.18,0.39-0.28,0.58l-0.18.37c-0.13.25-.14,0.5-0.26,0.75a1.32,1.32,0,0,0-.22.6h0a2,2,0,0,1-.47.61,0.52,0.52,0,0,1-.08,0,4,4,0,0,1-.24.34c-0.13.23-.28,0.45-0.41,0.66s-0.41.63-.62,0.94l-0.21.32-0.26.36c-0.14.21-.29,0.41-0.44,0.61l-0.11.16-0.07.09-0.21.27a30.75,30.75,0,0,1-2.16,2.73,2.14,2.14,0,0,0-.72.92h0c-1,.21-0.6.42-0.82,0.62s-0.58.46-.83,0.68-0.56.46-.83,0.69-0.49.39-.72,0.58c-0.8.64-1.64,1.25-2.5,1.83l-0.65.42c-0.41.27-.83,0.53-1.26,0.77l-0.6.35s-0.08-.16-0.13-0.14,0-.17-0.07-0.17h0a2.55,2.55,0,0,0-.2.34,38.71,38.71,0,0,1-3.61,1.87,0.18,0.18,0,0,0,0,.08v0h0l0,0h0l-0.09,0-0.1,0a0.06,0.06,0,0,1-.05,0c-0.29.13-.59,0.25-0.88,0.35a2.33,2.33,0,0,1-.33.14l-0.33.11-0.81.29c-0.05,0-.1.29-0.15,0.29s-0.2-.65-0.3.35h0a1.6,1.6,0,0,0,0-.23c-0.1,0-.2-0.06-0.3,0a3,3,0,0,1-.3,0c-0.23.07-.45,0.11-0.67,0.17s-0.42.11-.64,0.16c-0.41.12-.83,0.21-1.25,0.31h-0.05c-0.32.08-.65,0.15-1,0.21a1.38,1.38,0,0,1-.29.06l-0.3.06-0.14,0-0.33.05,0,0.07q0.19,0.53.42,1.05c0.35-.06.71-0.13,1.06-0.21l0.42-.09a40.31,40.31,0,0,0,7-2.26,35.35,35.35,0,0,0,3.72-1.82c0.16-.08.32-0.18,0.47-0.27a38.24,38.24,0,0,0,7.73-5.81c0.3-.29.6-0.59,0.89-0.89A36.64,36.64,0,0,0,1236.86,1860.65Zm-18.29,40.66a0.58,0.58,0,0,1-.13.08l0.13-.07q0.3-.16.6-0.36Z" transform="translate(-622.27 -1521.15)"/><path class="cls-27" d="M1168,1890.46c-0.54-.06-1.08-0.09-1.62-0.1l-0.36-.48c-0.12-.16-0.24-0.32-0.35-0.49a0.05,0.05,0,0,1,0,0,2.14,2.14,0,0,1-.13-0.19l-0.18-.25-0.05-.08c-0.26-.38-0.51-0.76-0.75-1.15-0.09-.14-0.18-0.28-0.26-0.43-0.19-.31-0.37-0.62-0.55-0.93s-0.51-.92-0.75-1.39A38.84,38.84,0,0,0,1168,1890.46Z" transform="translate(-622.27 -1521.15)"/><path class="cls-27" d="M1172.57,1896.92h0c-0.13-.1-0.25-0.21-0.37-0.32Z" transform="translate(-622.27 -1521.15)"/><path class="cls-27" d="M1174.74,1898.61l0.15,0.11,0,0-0.25-.18-0.18-.14Z" transform="translate(-622.27 -1521.15)"/><path class="cls-25" d="M1175.88,1899.41l0.52,0.35-0.19-.12-0.33-.23-0.53-.35-0.2-.14-0.11-.09,0.84,0.58" transform="translate(-622.27 -1521.15)"/><path class="cls-27" d="M1177.82,1900.64l0.4,0.24c-0.14-.07-0.27-0.15-0.4-0.23l-0.07,0Z" transform="translate(-622.27 -1521.15)"/><path class="cls-27" d="M1180.73,1902.22l0.49,0.24h0Z" transform="translate(-622.27 -1521.15)"/><path class="cls-27" d="M1181.22,1902.46l0.39,0.18-0.39-.17h0Z" transform="translate(-622.27 -1521.15)"/><path class="cls-27" d="M1203.38,1906.22l0.41,0-0.07,0-0.24,0h-0.1Z" transform="translate(-622.27 -1521.15)"/><path class="cls-27" d="M1205.29,1906a7,7,0,0,0,.78-0.13l-0.18,0-1,.15A2.25,2.25,0,0,0,1205.29,1906Z" transform="translate(-622.27 -1521.15)"/><path class="cls-27" d="M1236.92,1871.58c0,0.33,0,.65-0.05,1a35.91,35.91,0,0,1-.61,4.64c-0.07.36-.15,0.72-0.24,1.07-0.17.75-.37,1.49-0.59,2.22a0.64,0.64,0,0,0,0,.11l-0.33,1c-0.12.37-.25,0.73-0.39,1.09v0l-0.39,1c-0.1.24-.2,0.48-0.31,0.72l-0.25.58-0.28.58-0.18.37-0.38.75-0.33.6h0l-0.35.61-0.23.39c-0.13.23-.27,0.45-0.4,0.66s-0.4.63-.61,0.94-0.31.45-.47,0.68-0.29.41-.44,0.61l-0.12.15c-0.08.13-.18,0.25-0.27,0.37a33,33,0,0,1-2.33,2.73c-0.28.31-.58,0.62-0.89,0.92h0l-0.65.62c-0.24.24-.49,0.46-0.74,0.68s-0.52.46-.79,0.69l-0.7.58q-1.2,1-2.49,1.83l-0.64.42c-0.41.27-.83,0.53-1.26,0.77q-0.3.19-.6,0.36l-0.13.07-0.07,0h0l-0.21.11c-1.19.65-2.46,1.1-3.62,1.74l0,0h0l-0.22.12a0.06,0.06,0,0,1-.05,0,23.56,23.56,0,0,1-7,2.28l-1,.15a0.21,0.21,0,0,1-.11,0l0-.07-3.14-1.34-2.48-1.05-5.6-2.38a40.18,40.18,0,0,0,4.25-.15,38.94,38.94,0,0,0,5-.76c0.34-.07.69-0.15,1-0.24a39.43,39.43,0,0,0,6-2,36.49,36.49,0,0,0,3.61-1.76c0.14-.08.28-0.15,0.41-0.24a36.86,36.86,0,0,0,9.12-7.26c0.36-.38.69-0.77,1-1.16h0l0.6-.74q0.93-1.17,1.74-2.4a34.85,34.85,0,0,0,4.13-8.48h0a35.52,35.52,0,0,0,1.76-11.78c0-.37,0-0.73,0-1.1s-0.06-1-.11-1.52a36.28,36.28,0,0,0-3.39-12.13h0c-0.19-.4-0.39-0.79-0.59-1.18,0.19,0.25.38,0.51,0.56,0.77a1.76,1.76,0,0,1,.16.22c0.1,0.13.2,0.28,0.3,0.42,0.22,0.32.44,0.65,0.65,1l0.18,0.28a37.14,37.14,0,0,1,4.14,9.08c0.13,0.42.25,0.84,0.35,1.26a3.28,3.28,0,0,1,.12.42h0A35.45,35.45,0,0,1,1236.92,1871.58Z" transform="translate(-622.27 -1521.15)"/><path class="cls-26" d="M1201.88,1875.62l0,0a17,17,0,0,1-20.35-2.94c-5.35-5.36-6.49-13-2.93-19.08,0.14-.24.34-0.43,0.5-0.68a15.56,15.56,0,0,1,2.08-2.43,16.42,16.42,0,0,1,8.26-4.44,10.17,10.17,0,0,1,9.06,2.54,0.65,0.65,0,0,1,0,.95,0.72,0.72,0,0,1-1,0,8.77,8.77,0,0,0-7.79-2.16,15,15,0,0,0-7.53,4.09,14.2,14.2,0,0,0-1.89,2.26c-0.15.22-.3,0.44-0.42,0.66-3.27,5.62-2.15,12.7,2.76,17.62a16.38,16.38,0,0,0,18.84,2.88c0.34-.16.62-0.26,0.8,0.07S1202.2,1875.44,1201.88,1875.62Z" transform="translate(-622.27 -1521.15)"/><path class="cls-27" d="M1199.55,1872.67l0.94,2.66a16.29,16.29,0,0,1-17.85-3.32c-4.91-4.92-6-12-2.77-17.61a7,7,0,0,1,.42-0.67,15,15,0,0,1,1.87-2.25,15.48,15.48,0,0,1,6.28-3.76c-4.27,3.25-9.71,9-7,15.9C1185.78,1874.39,1199.55,1872.67,1199.55,1872.67Z" transform="translate(-622.27 -1521.15)"/><path class="cls-28" d="M1180.12,1867.43c0.61-.18.82-1.13,0.47-2.12s-1.13-1.65-1.73-1.47a0.83,0.83,0,0,0-.49.51,14.88,14.88,0,0,0,1,2.88A1,1,0,0,0,1180.12,1867.43Z" transform="translate(-622.27 -1521.15)"/><path class="cls-28" d="M1178.42,1858a0.75,0.75,0,0,0,.18.12c0.62,0.16,1.34-.52,1.6-1.52a1.82,1.82,0,0,0-.46-2A13.64,13.64,0,0,0,1178.42,1858Z" transform="translate(-622.27 -1521.15)"/><path class="cls-28" d="M1187.88,1875c0.47-.69-0.16-1.89-1.4-2.69s-2.64-.88-3.11-0.19a0.89,0.89,0,0,0-.14.4,15.69,15.69,0,0,0,4.3,2.77A1,1,0,0,0,1187.88,1875Z" transform="translate(-622.27 -1521.15)"/><path class="cls-28" d="M1181.22,1902.46l0.39,0.18h0l-0.35-.16h0Z" transform="translate(-622.27 -1521.15)"/><path class="cls-28" d="M1184.3,1903.77l-0.2-.07h0Z" transform="translate(-622.27 -1521.15)"/><path class="cls-28" d="M1172.57,1896.92h0c-0.13-.1-0.25-0.21-0.37-0.32Z" transform="translate(-622.27 -1521.15)"/><path class="cls-28" d="M1202.34,1906.31h-0.08l-0.19,0-0.45,0a0,0,0,0,1,0,0l0.62,0h0.09Z" transform="translate(-622.27 -1521.15)"/><path class="cls-28" d="M1205.29,1906a7,7,0,0,0,.78-0.13l-0.18,0Q1205.59,1905.93,1205.29,1906Z" transform="translate(-622.27 -1521.15)"/><path class="cls-28" d="M1214.51,1903.34h-0.07l-0.09,0-0.1,0a0.06,0.06,0,0,1-.05,0c-0.29.13-.59,0.25-0.88,0.35s-0.44.18-.66,0.25l-0.81.29-0.15,0-0.16.05-0.15.06h0l-0.6.18c-0.22.08-.44,0.14-0.67,0.2s-0.42.13-.64,0.18c-0.41.12-.83,0.22-1.25,0.32h-0.05c-0.32.08-.65,0.15-1,0.21a1.38,1.38,0,0,1-.29.06l-0.44.1-0.33.05-3.14-1.34a8.15,8.15,0,0,1,2.21-1.33q0.46-.2,1-0.36a11.52,11.52,0,0,1,2-.44,10.29,10.29,0,0,1,6.29,1Z" transform="translate(-622.27 -1521.15)"/><path class="cls-29" d="M1202.25,1906.31h0Z" transform="translate(-622.27 -1521.15)"/><path class="cls-29" d="M1203.38,1906.22l0.41,0-0.07,0-0.24,0h-0.1Z" transform="translate(-622.27 -1521.15)"/><path class="cls-29" d="M1205.29,1906a7,7,0,0,0,.78-0.13l-0.18,0-1,.15A2.25,2.25,0,0,0,1205.29,1906Z" transform="translate(-622.27 -1521.15)"/><path class="cls-29" d="M1232.69,1889.39a37,37,0,0,1-4.81,6.21c-0.29.3-.59,0.6-0.89,0.89a38.24,38.24,0,0,1-7.73,5.81c-0.15.09-.31,0.19-0.47,0.27a35.35,35.35,0,0,1-3.72,1.82,40.31,40.31,0,0,1-7,2.26l-0.42.09c-0.35.08-.71,0.15-1.06,0.21q-0.22-.53-0.42-1.05l0-.07-3.14-1.34-2.48-1.05c-0.48-.83-0.93-1.68-1.35-2.53a0,0,0,0,1,0,0,73.72,73.72,0,0,1-7-23.2c-0.06-.4-0.12-0.8-0.16-1.18h0c-0.19-1.51-.36-3-0.48-4.49a134.72,134.72,0,0,1,.32-24.78h0l0.15-1.35c0.54-5,1.29-9.67,2.06-13.69v0c0.07-.4.14-0.8,0.23-1.18,1.28-.08,2.58-0.1,3.87-0.06l1,0.06c1,0,2,.14,3,0.27a44.18,44.18,0,0,1,4.79.88l0.38,0.1a41.53,41.53,0,0,1,9,3.39c0.83,0.41,1.64.86,2.43,1.34a41,41,0,0,1,11.17,9.79l0.14,2.14v0l0,0.41v0l1,14.41,0.11,1.71,0.12,1.78,0.58,8.62h0l0.76,11.41h0Z" transform="translate(-622.27 -1521.15)"/><path class="cls-24" d="M1249.87,1879.12a33.85,33.85,0,0,0,19.31,43.51c0.13,0.06.26,0.11,0.39,0.16a32.83,32.83,0,0,0,3.39,1.08,33.88,33.88,0,0,0,22.14-63.82q-0.78-.34-1.57-0.64a33.54,33.54,0,0,0-21.59-.78,32.7,32.7,0,0,0-3.84,1.39A33.81,33.81,0,0,0,1249.87,1879.12Z" transform="translate(-622.27 -1521.15)"/><path class="cls-26" d="M1267.43,1859.16a34.52,34.52,0,0,0-9.08,5.81,34.88,34.88,0,0,0-9.48,13.77s0,0.07,0,.11c-0.29.77-.54,1.54-0.76,2.31a8.76,8.76,0,0,1,1.41-1c0.12-.36.24-0.72,0.38-1.08s0.21-.55.33-0.83a0.71,0.71,0,0,1,.05-0.13s0,0,0,0a3,3,0,0,1,.3-0.2,1.65,1.65,0,0,1,.22,0h0a1.32,1.32,0,0,1-.2,0c0-.05-0.07-0.1,0-0.14h0a0.1,0.1,0,0,1,0,0,0.08,0.08,0,0,1,0,0s0,0,0,0a0.55,0.55,0,0,1,0-.06,0.27,0.27,0,0,1,0-.05c0.05-.11.09-0.21,0.14-0.31a3.64,3.64,0,0,1,.16-0.35l0.1-.21s-0.08,0-.06-0.06a0.26,0.26,0,0,0-.09,0v0a0.47,0.47,0,0,1,.13-0.06c0-.07.12-0.15,0.16-0.23l0.19-.33c0.13-.26.27-0.52,0.41-0.78s0.29-.51.43-0.76l0.21-.36,0.21-.35,0,0,0.15-.26a0.41,0.41,0,0,1,.07-0.11l0.06-.09,0.17-.28c0.15-.24.31-0.48,0.47-0.71,0-.07.09-0.13,0.13-0.19s0,0,0,0l0,0h0l0.31-.45,0.13-.17a0.08,0.08,0,0,1,0,0h0a0.88,0.88,0,0,1,.07-0.1l0.37-.5,0.11-.14c0.29-.38.59-0.75,0.9-1.12l0.5-.58,0.11-.13,0.21-.23a2.94,2.94,0,0,1,.24-0.27l0.28-.3,0.11-.11,0.22-.23c0.11-.12.23-0.25,0.36-0.37l0.63-.61,0.41-.33s0.15-.07.15-0.09h0a0.33,0.33,0,0,1,.16-0.18h0s0,0,0,0a0.49,0.49,0,0,1,.13-0.12h0l0.09-.08,0,0,0.15-.13,0.09-.08,0.51-.43s0,0,.07,0a0.09,0.09,0,0,1,.07,0h0a0.51,0.51,0,0,0,0-.11,1.77,1.77,0,0,1,.14-0.13,0.79,0.79,0,0,1,.09-0.09l0.52-.42a1.37,1.37,0,0,1,.19-0.14l0,0a0.06,0.06,0,0,1,0,0l0,0c0.3-.23.61-0.45,0.92-0.67l0.13-.09,0,0,0.16-.11,0.9-.59c0.07,0,.14-0.25.21-0.29a1.77,1.77,0,0,1,.11-0.23h0a0.31,0.31,0,0,0,.14.07c0.07,0,.15,0,0.23-0.06s0.11,0,.16,0a1.54,1.54,0,0,1,.22-0.11l0.1-.05,0.35-.2,0.42-.23,0.27-.15a0.79,0.79,0,0,1,.05-0.09,0.52,0.52,0,0,1,.1-0.13h0a0.27,0.27,0,0,0,.08,0,0.55,0.55,0,0,1,.17-0.05c0.23-.13.46-0.22,0.7-0.33a0.16,0.16,0,0,1,.09,0,0.74,0.74,0,0,1,.18-0.09l0.27-.13,0.45-.22a1.12,1.12,0,0,1,.4-0.19h0a1.36,1.36,0,0,0,.44-0.18C1268.17,1859.58,1267.8,1859.36,1267.43,1859.16Zm28.09-.09c-0.54-.23-1.08-0.45-1.63-0.66a36,36,0,0,0-5.93-1.88c-0.69-.13-1.37.47-2.06-0.53h0a66.74,66.74,0,0,0-8.6.21,34.27,34.27,0,0,0-5.66,1.29,31.61,31.61,0,0,0-3.19,1.17c-0.26.1-.52,0.24-0.78,0.35-0.08,0-.15.08-0.23,0.12a34.54,34.54,0,0,0-9.08,5.82,34.89,34.89,0,0,0-9.48,13.77s0,0.07,0,.11c-0.29.77-.54,1.54-0.76,2.31a34.63,34.63,0,0,0,.63,21.7,32.64,32.64,0,0,0,1.26,3.05q0.26,0.55.54,1.11a34.7,34.7,0,0,0,11.27,12.86,31.11,31.11,0,0,0,3.56,2.15c0.77,0.41,1.57.79,2.38,1.13h0c0.33,0.15.67,0.29,1,.42l0.1,0a2.55,2.55,0,0,0,.35.14,30.58,30.58,0,0,0,3.49,1.12A34.94,34.94,0,0,0,1295.52,1859.07Zm19.88,33.38c0,0.24,0,.49,0,0.73l0,0.4c0,0.29,0,.58-0.07.87,0,0.11,0,.22,0,0.34,0,0.35-.08.7-0.13,1s-0.07.71-.13,1.06a7.13,7.13,0,0,0-.18,1.11h0a0.43,0.43,0,0,0-.05.07,0.94,0.94,0,0,1-.06.15c-0.06.33-.15,0.66-0.24,1s-0.11.39-.16,0.58-0.11.39-.16,0.58l-0.05.17a2.13,2.13,0,0,1-.09.31s0,0,0,0a0,0,0,0,1,0,0c0,0.17-.09.34-0.15,0.52l0,0.08a0,0,0,0,1,0,0l-0.06.18a0,0,0,0,1,0,0c-0.14.44-.3,0.86-0.46,1.3-0.09.27-.2,0.53-0.31,0.79,0,0.09-.07.19-0.12,0.28a3.07,3.07,0,0,1-.16.38c-0.07.18-.15,0.35-0.23,0.53s-0.15.33-.23,0.5c-0.35.74-.72,1.47-1.12,2.18l-0.1.18c-0.09.17-.19,0.33-0.29,0.49l-0.2.34-0.16.27a0,0,0,0,1,0,0,0.07,0.07,0,0,1,0,.05c-0.24.39-.5,0.78-0.75,1.16-0.13.18-.25,0.36-0.39,0.53s-0.25.37-.39,0.55q-0.41.56-.84,1.08a0.36,0.36,0,0,1-.06,0h-0.05a0.13,0.13,0,0,1,0,.08c-0.23.27-.44,0.54-0.68,0.81l-0.13.18-0.18.21c-0.37.42-.75,0.83-1.15,1.22a2.14,2.14,0,0,1-.26.26l-0.54.53-0.17.16c-0.44.41-.9,0.81-1.36,1.19l0,0,0,0-0.1.09c-0.44.36-.68,0.7-1.13,1a0.4,0.4,0,0,0-.2.29V1919h-0.41s-0.05-.18-0.07-0.16a2.08,2.08,0,0,1-.24.06c-0.19.14-.38,0.22-0.58,0.35s-0.46.28-.69,0.42a0,0,0,0,1-.05,0,0,0,0,0,1-.05,0,1.57,1.57,0,0,1-.24.15l-0.27.17-0.51.3a4.41,4.41,0,0,1-.42.24c-0.08,0-.23.1-0.31,0.14a1.06,1.06,0,0,0-.16,0h0a0.06,0.06,0,0,1,0,.06l-0.21.13-0.11.07c-0.13.07-.24,0.14-0.37,0.2l-0.14.07-0.3.16-0.19.09-0.63.3-0.51.23h0l-0.19.08-0.76.32-0.06,0-0.45.18-0.46.17-0.35.13-0.12,0-0.33.12c-0.15.06-.3,0.1-0.45,0.15a1.65,1.65,0,0,1-.28-0.12s-0.07-.17-0.11-0.17h0s-0.07.23-.11,0.25-0.21.17-.32,0.2-0.28.13-.43,0.17l-0.86.27,0,0-0.29.08-0.83.2c-0.34.08-.68,0.15-1,0.21l-0.19,0-0.15,0a8,8,0,0,1-.83.14c-0.41.07-.82,0.12-1.23,0.17h-0.11q-0.48.06-1,.09c-0.26,0-.52,0-0.79.06l-0.4,0h-1.74l-0.87,0c-0.24,0-.47,0-0.71,0a1.68,1.68,0,0,0-.22,0h0a1.27,1.27,0,0,1-.18-0.05l-0.23,0-0.83-.08-1.07-.12-0.18,0c-0.52-.07-1-0.15-1.57-0.25a0.85,0.85,0,0,1-.23,0l-0.18,0c-0.28-.06-0.55-0.09-0.82-0.16a5.36,5.36,0,0,0-.95-0.2h0a1.37,1.37,0,0,1-.33-0.1l0,0c-0.57-.15-1.13-0.32-1.7-0.51-0.41-.13-0.81-0.27-1.22-0.42l-0.21-.07-0.26-.1-0.19-.08a0.8,0.8,0,0,1-.16-0.08,1.09,1.09,0,0,1-.43-0.19h0a3.29,3.29,0,0,0-.8-0.31c-0.18-.07-0.38-0.15-0.56-0.24s-0.19.11-.28,0.07a0.67,0.67,0,0,0-.27.06h0s-0.08-.22-0.13-0.26c-0.39-.19-0.78-0.49-1.17-0.69s-0.76-.47-1.14-0.69-0.74-.46-1.11-0.69l-0.58-.4c-0.18-.11-0.34-0.23-0.51-0.35a2.07,2.07,0,0,1-.26-0.18c-0.26-.18-0.51-0.37-0.76-0.56s-0.65-.49-1-0.74l-0.31-.26-0.71-.6c-0.32-.28-0.63-0.57-0.94-0.86s-0.61-.58-0.9-0.88-0.47-.48-0.7-0.73l-0.17-.19c-0.21-.23-0.42-0.46-0.62-0.7l-0.21-.24-0.07-.08c-0.12-.15-0.25-0.3-0.36-0.45l-0.36-.45a2.39,2.39,0,0,1-.23-0.3,1.66,1.66,0,0,1-.2-0.26c-0.11-.15-0.22-0.29-0.32-0.44-0.26-.34-0.49-0.68-0.72-1s-0.39-.59-0.58-0.89c-0.08-.14-0.17-0.29-0.27-0.44l-0.15-.26c-0.11-.17-0.21-0.35-0.31-0.53-0.21-.37-0.27-0.73-0.46-1.1h0.13a3,3,0,0,0-.24-0.19c-0.12-.23-0.31-0.47-0.42-0.71,0-.06-0.1-0.12-0.13-0.19h0c0-.05-0.06-0.1-0.09-0.17a0.83,0.83,0,0,1-.08-0.19c-0.12-.25-0.24-0.51-0.35-0.77-0.25-.56-0.48-1.14-0.68-1.72a29.7,29.7,0,0,1-.93-2.9c-0.06-.2-0.11-0.4-0.16-0.61-0.16-.65-0.31-1.31-0.43-2-0.07-.37-0.14-0.75-0.19-1.13a0.36,0.36,0,0,1,0-.11c0-.22-0.07-0.45-0.09-0.68s0-.3-0.06-0.47,0-.36-0.05-0.54a3.6,3.6,0,0,1,0-.36c0-.1,0-0.2,0-0.3,0-.4-0.06-0.8-0.08-1.21s0-.94,0-1.41,0-.92,0-1.38,0-.68.06-1l0-.41,0.06-.59a1.36,1.36,0,0,1,0-.19c0-.31.06-0.63,0.11-0.94s0.1-.73.17-1.09,0.07-.43.12-0.65,0.11-.6.18-0.9,0.12-.54.19-0.8a0,0,0,0,1,0,0,3.4,3.4,0,0,1,.12-0.46,0.65,0.65,0,0,1,.05-0.2l0.15-.54a0.62,0.62,0,0,1,.07-0.23,7.56,7.56,0,0,1,.27-0.89,5.81,5.81,0,0,1,.19-0.59c0.12-.36.24-0.72,0.38-1.08s0.21-.55.33-0.83a0.71,0.71,0,0,1,.05-0.13s0,0,0,0a3,3,0,0,1,.3-0.2,1.65,1.65,0,0,1,.22,0h0a1.32,1.32,0,0,1-.2,0c0-.05-0.07-0.1,0-0.14h0a0.1,0.1,0,0,1,0,0,0.08,0.08,0,0,1,0,0s0,0,0,0a0.55,0.55,0,0,1,0-.06,0.27,0.27,0,0,1,0-.05c0.05-.11.09-0.21,0.14-0.31a3.64,3.64,0,0,1,.16-0.35l0.1-.21s-0.08,0-.06-0.06a0.26,0.26,0,0,0-.09,0v0a0.47,0.47,0,0,1,.13-0.06c0-.07.12-0.15,0.16-0.23l0.19-.33c0.13-.26.27-0.52,0.41-0.78s0.29-.51.43-0.76l0.21-.36,0.21-.35,0,0,0.15-.26a0.41,0.41,0,0,1,.07-0.11l0.06-.09,0.17-.28c0.15-.24.31-0.48,0.47-0.71,0-.07.09-0.13,0.13-0.19s0,0,0,0l0,0h0l0.31-.45,0.13-.17a0.08,0.08,0,0,1,0,0h0a0.88,0.88,0,0,1,.07-0.1l0.37-.5,0.11-.14c0.29-.38.59-0.75,0.9-1.12l0.5-.58,0.11-.13,0.21-.23a2.94,2.94,0,0,1,.24-0.27l0.28-.3,0.11-.11,0.22-.23c0.11-.12.23-0.25,0.36-0.37l0.63-.61,0.41-.33s0.15-.07.15-0.09h0a0.33,0.33,0,0,1,.16-0.18h0s0,0,0,0a0.49,0.49,0,0,1,.13-0.12h0l0.09-.08,0,0,0.15-.13,0.09-.08,0.51-.43s0,0,.07,0a0.09,0.09,0,0,1,.07,0h0a0.51,0.51,0,0,0,0-.11,1.77,1.77,0,0,1,.14-0.13,0.79,0.79,0,0,1,.09-0.09l0.52-.42a1.37,1.37,0,0,1,.19-0.14l0,0a0.06,0.06,0,0,1,0,0l0,0c0.3-.23.61-0.45,0.92-0.67l0.13-.09,0,0,0.16-.11,0.9-.59c0.07,0,.14-0.25.21-0.29a1.77,1.77,0,0,1,.11-0.23h0a0.31,0.31,0,0,0,.14.07c0.07,0,.15,0,0.23-0.06s0.11,0,.16,0a1.54,1.54,0,0,1,.22-0.11l0.1-.05,0.35-.2,0.42-.23,0.27-.15a0.79,0.79,0,0,1,.05-0.09,0.52,0.52,0,0,1,.1-0.13h0a0.27,0.27,0,0,0,.08,0,0.55,0.55,0,0,1,.17-0.05c0.23-.13.46-0.22,0.7-0.33a0.16,0.16,0,0,1,.09,0,0.74,0.74,0,0,1,.18-0.09l0.27-.13,0.45-.22a1.12,1.12,0,0,1,.4-0.19h0a1.11,1.11,0,0,0,.44.06,1.91,1.91,0,0,1,.75-0.06h0s0.07-.26.11-0.28,0.1-.16.15-0.18,0.28-.16.43-0.22c0.64-.22,1.29-0.47,1.94-0.66s1-.31,1.55-0.43c0.26-.07.53-0.15,0.81-0.2l0.5-.11h0c0.54-.12,1.1-0.22,1.65-0.3q0.42-.07.84-0.12l0.85-.1c0.34,0,.69-0.07,1-0.09s0.7,0,1.05-.06,0.89,0,1.34,0,0.81-.13,1.22-0.11l0.57-.1h0s0,0.13.05,0.14c0.4,0,.79.11,1.18,0.15s0.9,0.12,1.36.18l0.19,0c0.39,0.05.77,0.12,1.17,0.19h0l0.52,0.1a7.72,7.72,0,0,1,.81.17l0.56,0.12q0.64,0.15,1.29.33l0.15,0c0.45,0.13.9,0.26,1.34,0.41s1,0.33,1.48.52,1.05,0.41,1.57.64c0.37,0.16.75,0.33,1.11,0.51l0.14,0.07c0.31,0.14.62,0.3,0.92,0.46s0.5,0.26.75,0.41,0.49,0.27.73,0.41q0.87,0.51,1.71,1.08l0.74,0.51,0.13,0.09,0.76,0.57c0.37,0.27.73,0.56,1.08,0.86l0.74,0.62c0.24,0.21.48,0.42,0.71,0.64s0.7,0.66,1,1c0.14,0.13.27,0.27,0.4,0.41,0.36,0.37.66,0.75,1,1.13a2.16,2.16,0,0,1,.74.92h0a2.79,2.79,0,0,0,.79,1c0.25,0.32.5,0.65,0.73,1,0.34,0.49.67,1,1,1.48,0.21,0.32.4,0.65,0.6,1a2,2,0,0,1,.11.2c0.22,0.38.43,0.77,0.63,1.16l0.06,0.1c0.22,0.44.43,0.88,0.64,1.33,0.13,0.28.27,0.57,0.38,0.86a2.44,2.44,0,0,1,.1.24c0.1,0.21.18,0.43,0.26,0.64s0.18,0.45.26,0.67l0.24,0.68c0,0.1.07,0.19,0.1,0.28,0.15,0.45.29,0.9,0.42,1.36s0.41,0.94.51,1.42a1.68,1.68,0,0,1,.19.2h0a5.92,5.92,0,0,0,.15,1.25s-0.06,0-.06.06,0,0.14,0,.21,0.05,0.38.08,0.57,0.05,0.38.08,0.57a2.16,2.16,0,0,1,0,.25c0,0.14,0,.28,0,0.42a0.77,0.77,0,0,1,0,.15c0.05,0.3.09,0.6,0.11,0.9s0,0.35,0,.53,0.25,0.65.27,1c0,0.09.21,0.17,0.21,0.26v0.08c0,0.22-.18.43-0.16,0.65s-0.09.61-.09,0.92-0.06.82-.07,1.23A0.68,0.68,0,0,1,1315.4,1892.45Zm-62.88-18.82,0,0,0.15-.26C1252.63,1873.44,1252.57,1873.53,1252.52,1873.63Z" transform="translate(-622.27 -1521.15)"/><path class="cls-27" d="M1249.87,1879.12a33.85,33.85,0,0,0,19.31,43.51,4.25,4.25,0,0,0,.4.15c1.13,0.43,2.3.65,3.39,1.07l0,0c3.71,1.4,7.75,1.33,11.54,1a33.55,33.55,0,0,0,7.15-1.42,33.69,33.69,0,0,0,16.17-11,32.87,32.87,0,0,0,3.2-4.71,34,34,0,0,0,2.17-4.66c0.34-.89.63-1.78,0.88-2.68a33.87,33.87,0,0,1-39.16,18.18,32.83,32.83,0,0,1-3.39-1.08c-0.13-.05-0.26-0.1-0.39-0.16a33.82,33.82,0,0,1-20.17-40.85C1250.59,1877.33,1250.21,1878.2,1249.87,1879.12Z" transform="translate(-622.27 -1521.15)"/><path class="cls-29" d="M1259.06,1865.77c0.37,0.17.77,0.34,1.15,0.48,0.13,0.06.26,0.11,0.39,0.16a32.83,32.83,0,0,0,3.39,1.08,33.85,33.85,0,0,0,31.11-7.45q-0.78-.34-1.57-0.64a33.54,33.54,0,0,0-21.59-.78,32.7,32.7,0,0,0-3.84,1.39A33.75,33.75,0,0,0,1259.06,1865.77Z" transform="translate(-622.27 -1521.15)"/><path class="cls-29" d="M1249.87,1879.12a33.87,33.87,0,0,0,19.7,43.67,32.83,32.83,0,0,0,3.39,1.08,33.86,33.86,0,0,0,2.36-64.15,32.64,32.64,0,0,0-3.39-1.08A33.76,33.76,0,0,0,1249.87,1879.12Z" transform="translate(-622.27 -1521.15)"/><path class="cls-29" d="M1249.87,1879.12a33.85,33.85,0,0,0,19.31,43.51,33.86,33.86,0,0,0-1.09-62.59A33.74,33.74,0,0,0,1249.87,1879.12Z" transform="translate(-622.27 -1521.15)"/><path class="cls-26" d="M1279.19,1897.33h0a14.09,14.09,0,0,0,17-5.4,14.58,14.58,0,0,0-.67-17.49c-0.16-.2-0.36-0.34-0.54-0.54a15.52,15.52,0,0,0-10-4.75,8.37,8.37,0,0,0-7.35,3.51,0.61,0.61,0,0,0,.13.85,0.6,0.6,0,0,0,.85-0.13,7.22,7.22,0,0,1,6.32-3,14,14,0,0,1,9.13,4.4c0.16,0.18.33,0.35,0.47,0.53a13.54,13.54,0,0,1,.57,16.16c-3.37,5-9.52,7-15.67,5.14-0.32-.1-0.58-0.15-0.68.18S1278.89,1897.22,1279.19,1897.33Z" transform="translate(-622.27 -1521.15)"/><path class="cls-27" d="M1280.7,1894.37l-0.36,2.51a13.57,13.57,0,0,0,14.17-21.56,6.71,6.71,0,0,0-.48-0.54,14.1,14.1,0,0,0-2-1.76,13.8,13.8,0,0,0-6-2.52c4.2,2.33,9.83,6.76,8.63,13.3C1292.78,1894,1280.7,1894.37,1280.7,1894.37Z" transform="translate(-622.27 -1521.15)"/><path class="cls-28" d="M1296.48,1887c-0.55-.08-0.89-0.9-0.76-1.84s0.69-1.63,1.24-1.55a0.77,0.77,0,0,1,.5.39,13.71,13.71,0,0,1-.35,2.71A0.8,0.8,0,0,1,1296.48,1887Z" transform="translate(-622.27 -1521.15)"/><path class="cls-28" d="M1296.37,1878.39a0.62,0.62,0,0,1-.14.13c-0.51.23-1.24-.28-1.62-1.14a1.68,1.68,0,0,1,.06-1.83A13.15,13.15,0,0,1,1296.37,1878.39Z" transform="translate(-622.27 -1521.15)"/><path class="cls-28" d="M1291.09,1894.89c-0.52-.55-0.18-1.72.76-2.6s2.12-1.15,2.64-.59a0.86,0.86,0,0,1,.19.34,13.07,13.07,0,0,1-3.22,3.06A0.87,0.87,0,0,1,1291.09,1894.89Z" transform="translate(-622.27 -1521.15)"/><path class="cls-28" d="M1284.22,1896.27a2.61,2.61,0,0,1,2.19.84,14.4,14.4,0,0,1-4.34.08A2.61,2.61,0,0,1,1284.22,1896.27Z" transform="translate(-622.27 -1521.15)"/><path class="cls-28" d="M1290.11,1872.2a2.68,2.68,0,0,1-.46-0.56,14.68,14.68,0,0,1,2,1.16A2,2,0,0,1,1290.11,1872.2Z" transform="translate(-622.27 -1521.15)"/><path class="cls-28" d="M1291.7,1923.42a34.17,34.17,0,0,0,9.69-4.84,8.48,8.48,0,0,0-5.35.7A7.9,7.9,0,0,0,1291.7,1923.42Z" transform="translate(-622.27 -1521.15)"/><path class="cls-28" d="M1307.87,1912.44a32.88,32.88,0,0,0,3.2-4.71C1309,1909,1307.73,1910.87,1307.87,1912.44Z" transform="translate(-622.27 -1521.15)"/><path class="cls-28" d="M1273,1923.88a33.51,33.51,0,0,0,11.55,1c-0.84-1.62-3.35-2.75-6.29-2.7A8.41,8.41,0,0,0,1273,1923.88Z" transform="translate(-622.27 -1521.15)"/><path class="cls-30" d="M1278.71,1896.86c-0.08.3,0.13,0.46,0.43,0.57l0,0c0.34,0.13.68,0.24,1,.34l0.13-.9c-0.31-.07-0.62-0.16-0.93-0.26S1278.82,1896.54,1278.71,1896.86Z" transform="translate(-622.27 -1521.15)"/><path class="cls-24" d="M1216.77,1780.17a51.08,51.08,0,0,1,8.73-12c15.83-16.11,39.77-19.31,60-10.07,20.64,9.43,35.7,30.09,34.19,53.28a51.48,51.48,0,0,1-47.54,48l-1.08,2.33a39.8,39.8,0,1,1-56.24,56.22,27.29,27.29,0,0,1-5.15-7.05,40,40,0,0,1-3.47-8c-0.93-2.62-1.82-5.55-2.66-8.81C1189,1837.43,1205.5,1798.49,1216.77,1780.17Z" transform="translate(-622.27 -1521.15)"/><path class="cls-31" d="M1272.12,1859.34l0.06,0a51.46,51.46,0,0,0,47.51-47.95c1.5-23.2-13.56-43.86-34.19-53.28a56.09,56.09,0,0,0-9-3.22c19.78,9.73,34,29.92,32.55,52.49a49.31,49.31,0,0,1-.75,6l0,0.21C1302.83,1845,1272.12,1859.34,1272.12,1859.34Z" transform="translate(-622.27 -1521.15)"/><ellipse class="cls-2" cx="1238.59" cy="1785.8" rx="26.12" ry="13.44" transform="translate(-1543.64 24.29) rotate(-48.91)"/><ellipse class="cls-32" cx="1234.57" cy="1782.29" rx="18.05" ry="8.11" transform="translate(-1542.38 20.06) rotate(-48.91)"/><circle class="cls-2" cx="1241.45" cy="1777.52" r="2.56" transform="translate(-1536.42 23.61) rotate(-48.91)"/><ellipse class="cls-2" cx="1238.08" cy="1781.38" rx="1.28" ry="2.35" transform="translate(-1540.49 22.39) rotate(-48.91)"/><path class="cls-26" d="M1268.44,1858.73a31.35,31.35,0,0,0-18.81-4.15,30.3,30.3,0,0,0-9.86,2.76,27.87,27.87,0,0,0-3.33,1.87c-0.35.22-.69,0.45-1,0.69a25.39,25.39,0,0,0-2,1.57,27.66,27.66,0,0,0-2.42,2.29,24.2,24.2,0,0,0-1.8,2.11,26.92,26.92,0,0,0-3.4,5.83,29.9,29.9,0,0,0-1.48,17,28.77,28.77,0,0,0,2.14,6.7h0c0.17,0.38.35,0.75,0.55,1.12a21.17,21.17,0,0,0,7.24,8.15,18.2,18.2,0,0,0,3.39,1.69,22,22,0,0,0,12.88.69c0.33-.08.67-0.17,1-0.27h0a18.9,18.9,0,0,0,4.14-1.74,17.75,17.75,0,0,0,2.78-1.91,15.93,15.93,0,0,0,2.7-3,17.28,17.28,0,0,0,2.88-12.25,12.2,12.2,0,0,0-7.66-9.81l-0.09,0a7.86,7.86,0,0,0-5.65,0,2.37,2.37,0,0,0-.34.13,10.25,10.25,0,0,0-1.43.74,12.81,12.81,0,0,0-2.52,2.1,0.86,0.86,0,0,0-.05,1,0.57,0.57,0,0,0,.82.08,9.66,9.66,0,0,1,1-.92,8.76,8.76,0,0,1,1.41-1c0.23-.12.47-0.24,0.72-0.35h0a7,7,0,0,1,5.33,0l0.08,0a10.65,10.65,0,0,1,7,8.51,15.14,15.14,0,0,1-3,11.71,14.83,14.83,0,0,1-2,2.09A16.12,16.12,0,0,1,1255,1904l-0.09,0c-0.29.16-.59,0.31-0.89,0.46l-0.19.09c-0.31.15-.63,0.28-0.95,0.41l-0.61.23c-0.42.16-.84,0.3-1.28,0.42s-0.66.19-1,.26-0.67.15-1,.21l-0.77.13c-0.52.07-1,.13-1.56,0.16l-0.78,0c-0.21,0-.43,0-0.64,0h-1.15l-0.46,0c-0.26,0-.53,0-0.8-0.08l-0.18,0a1.15,1.15,0,0,1-.26,0h-0.05l-0.14,0-0.32,0-0.64-.11a5.29,5.29,0,0,1-.58-0.12l-0.2,0-0.38-.09c-0.25-.06-0.49-0.13-0.73-0.21l-0.42-.13c-0.35-.11-0.7-0.23-1-0.36l-0.61-.26c-0.21-.08-0.41-0.18-0.61-0.28a6.5,6.5,0,0,1-.59-0.3c-0.4-.21-0.78-0.43-1.15-0.67a18.21,18.21,0,0,1-1.58-1.14h0l-0.15-.12a3.82,3.82,0,0,1-.31-0.26l-0.33-.29-0.15-.14a5.38,5.38,0,0,1-.42-0.4c-0.2-.19-0.38-0.38-0.57-0.58s-0.46-.5-0.67-0.76l-0.37-.45q-0.21-.25-0.39-0.51l-0.38-.52c-0.29-.41-0.56-0.82-0.81-1.25a1.73,1.73,0,0,1-.15-0.26,14.41,14.41,0,0,1-.73-1.33c-0.2-.38-0.38-0.77-0.55-1.16s-0.38-.88-0.54-1.33c-0.1-.24-0.18-0.48-0.26-0.72s-0.11-.33-0.16-0.5a1.5,1.5,0,0,1-.11-0.34c-0.09-.3-0.18-0.59-0.26-0.89-0.14-.5-0.26-1-0.37-1.5-0.06-.25-0.11-0.5-0.16-0.76s-0.09-.52-0.14-0.79c0,0,0,0,0-.08a0,0,0,0,1,0,0c0-.11,0-0.22-0.05-0.33s0-.28-0.05-0.42-0.06-.43-0.08-0.64c-0.07-.56-0.12-1.13-0.15-1.69s-0.06-1.22-.06-1.82a26.92,26.92,0,0,1,2-10.43,25.26,25.26,0,0,1,3.25-5.55c0.24-.32.5-0.64,0.76-0.94,0.06-.07.11-0.14,0.18-0.21l0.61-.69,0.47-.49a0.67,0.67,0,0,1,.12-0.12l0.57-.58c0.21-.21.43-0.41,0.65-0.6a28,28,0,0,1,2.25-1.83c0.34-.25.69-0.5,1-0.73l1.08-.68a29,29,0,0,1,11.88-4,29.4,29.4,0,0,1,17.67,3.37c0.37,0.2.74,0.43,1.1,0.67l0.75-.3h0l0.11,0,0.15-.06Q1269,1859.06,1268.44,1858.73Zm-70.05,5.46c0,0.09,0,.18,0,0.28,0.07,0.83.15,1.67,0.24,2.51C1198.56,1866,1198.47,1865.11,1198.39,1864.19Zm0-.19a1.25,1.25,0,0,0,0,.19q-0.12-1.4-.21-2.76C1198.24,1862.28,1198.3,1863.14,1198.37,1864Zm70.07-5.27a31.35,31.35,0,0,0-18.81-4.15,30.3,30.3,0,0,0-9.86,2.76,27.87,27.87,0,0,0-3.33,1.87c-0.35.22-.69,0.45-1,0.69a25.39,25.39,0,0,0-2,1.57,27.66,27.66,0,0,0-2.42,2.29,24.2,24.2,0,0,0-1.8,2.11,26.92,26.92,0,0,0-3.4,5.83,29.9,29.9,0,0,0-1.48,17,28.77,28.77,0,0,0,2.14,6.7h0c0.17,0.38.35,0.75,0.55,1.12a21.17,21.17,0,0,0,7.24,8.15,18.2,18.2,0,0,0,3.39,1.69,22,22,0,0,0,12.88.69c0.33-.08.67-0.17,1-0.27h0a18.9,18.9,0,0,0,4.14-1.74,17.75,17.75,0,0,0,2.78-1.91,15.93,15.93,0,0,0,2.7-3,17.28,17.28,0,0,0,2.88-12.25,12.2,12.2,0,0,0-7.66-9.81l-0.09,0a7.86,7.86,0,0,0-5.65,0,2.37,2.37,0,0,0-.34.13,10.25,10.25,0,0,0-1.43.74,12.81,12.81,0,0,0-2.52,2.1,0.86,0.86,0,0,0-.05,1,0.57,0.57,0,0,0,.82.08,9.66,9.66,0,0,1,1-.92,8.76,8.76,0,0,1,1.41-1c0.23-.12.47-0.24,0.72-0.35h0a7,7,0,0,1,5.33,0l0.08,0a10.65,10.65,0,0,1,7,8.51,15.14,15.14,0,0,1-3,11.71,14.83,14.83,0,0,1-2,2.09A16.12,16.12,0,0,1,1255,1904l-0.09,0c-0.29.16-.59,0.31-0.89,0.46l-0.19.09c-0.31.15-.63,0.28-0.95,0.41l-0.61.23c-0.42.16-.84,0.3-1.28,0.42s-0.66.19-1,.26-0.67.15-1,.21l-0.77.13c-0.52.07-1,.13-1.56,0.16l-0.78,0c-0.21,0-.43,0-0.64,0h-1.15l-0.46,0c-0.26,0-.53,0-0.8-0.08l-0.18,0a1.15,1.15,0,0,1-.26,0h-0.05l-0.14,0-0.32,0-0.64-.11a5.29,5.29,0,0,1-.58-0.12l-0.2,0-0.38-.09c-0.25-.06-0.49-0.13-0.73-0.21l-0.42-.13c-0.35-.11-0.7-0.23-1-0.36l-0.61-.26c-0.21-.08-0.41-0.18-0.61-0.28a6.5,6.5,0,0,1-.59-0.3c-0.4-.21-0.78-0.43-1.15-0.67a18.21,18.21,0,0,1-1.58-1.14h0l-0.15-.12a3.82,3.82,0,0,1-.31-0.26l-0.33-.29-0.15-.14a5.38,5.38,0,0,1-.42-0.4c-0.2-.19-0.38-0.38-0.57-0.58s-0.46-.5-0.67-0.76l-0.37-.45q-0.21-.25-0.39-0.51l-0.38-.52c-0.29-.41-0.56-0.82-0.81-1.25a1.73,1.73,0,0,1-.15-0.26,14.41,14.41,0,0,1-.73-1.33c-0.2-.38-0.38-0.77-0.55-1.16s-0.38-.88-0.54-1.33c-0.1-.24-0.18-0.48-0.26-0.72s-0.11-.33-0.16-0.5a1.5,1.5,0,0,1-.11-0.34c-0.09-.3-0.18-0.59-0.26-0.89-0.14-.5-0.26-1-0.37-1.5-0.06-.25-0.11-0.5-0.16-0.76s-0.09-.52-0.14-0.79c0,0,0,0,0-.08a0,0,0,0,1,0,0c0-.11,0-0.22-0.05-0.33s0-.28-0.05-0.42-0.06-.43-0.08-0.64c-0.07-.56-0.12-1.13-0.15-1.69s-0.06-1.22-.06-1.82a26.92,26.92,0,0,1,2-10.43,25.26,25.26,0,0,1,3.25-5.55c0.24-.32.5-0.64,0.76-0.94,0.06-.07.11-0.14,0.18-0.21l0.61-.69,0.47-.49a0.67,0.67,0,0,1,.12-0.12l0.57-.58c0.21-.21.43-0.41,0.65-0.6a28,28,0,0,1,2.25-1.83c0.34-.25.69-0.5,1-0.73l1.08-.68a29,29,0,0,1,11.88-4,29.4,29.4,0,0,1,17.67,3.37c0.37,0.2.74,0.43,1.1,0.67l0.75-.3h0l0.11,0,0.15-.06Q1269,1859.06,1268.44,1858.73Zm-70,5.74c0.07,0.83.15,1.67,0.24,2.51-0.09-.94-0.18-1.87-0.26-2.79C1198.39,1864.28,1198.4,1864.37,1198.41,1864.47Zm0-.47a1.25,1.25,0,0,0,0,.19q-0.12-1.4-.21-2.76C1198.24,1862.28,1198.3,1863.14,1198.37,1864Zm87.56-106.82c-1.19-.54-2.4-1.05-3.62-1.51-20.37-7.7-43-3.07-57.57,11.8a52.19,52.19,0,0,0-8.88,12.14,130.77,130.77,0,0,0-17.79,51.31q-0.09.59-.15,1.17a142.34,142.34,0,0,0-1.12,15.24c0,0.53,0,1.07,0,1.61a162.38,162.38,0,0,0,1.48,23.81c0.14,1,.29,2.11.46,3.18h0l0.15,1q1.33,8.41,3.63,17.42c0.53,2,1.08,4,1.66,5.81,0.33,1.05.67,2.05,1,3,0,0,0,0,0,0,0.28,0.89.58,1.77,0.92,2.63l0,0.07q0.19,0.53.42,1.05a39.62,39.62,0,0,0,2.18,4.43,28.91,28.91,0,0,0,5.33,7.3,40.88,40.88,0,0,0,54.78,4.95c0.33-.23.66-0.49,1-0.75a0,0,0,0,0,0,0c0.53-.42,1-0.85,1.55-1.31h0a39.57,39.57,0,0,0,3.12-3.09,40.58,40.58,0,0,0,7.89-12.93,41,41,0,0,0,2-7.21c0.06-.33.11-0.66,0.17-1h0c0-.33.1-0.67,0.14-1,0.12-.9.21-1.79,0.27-2.69a40.54,40.54,0,0,0-4.78-21.87c-0.19-.36-0.4-0.72-0.61-1.08-0.48-.85-1-1.68-1.56-2.49a40.91,40.91,0,0,0-4.26-5.27q-0.7-.73-1.44-1.44c0.17-.36.33-0.72,0.5-1.07,1.07-.09,2.13-0.22,3.18-0.38h0a51.31,51.31,0,0,0,9.94-2.51c0.67-.23,1.33-0.49,2-0.76a52.49,52.49,0,0,0,32.78-45.25C1322.19,1789.18,1308.2,1767.35,1285.93,1757.18Zm33.84,50c0,0.85,0,1.71,0,2.57v0.12c0,0.5,0,1-.08,1.51s-0.09,1.18-.15,1.77c0,0.08,0,.16,0,0.24-0.06.52-.12,1-0.19,1.54,0,0.18-.05.36-0.08,0.54-0.07.51-.15,1-0.24,1.52a2.93,2.93,0,0,0-.05.29c-0.09.48-.19,1-0.29,1.44h0l-0.09.42c-0.13.55-.25,1.08-0.39,1.62-0.32,1.23-.68,2.45-1.08,3.65,0,0.07-.05.14-0.07,0.21-0.18.54-.38,1.07-0.57,1.59-0.46,1.21-1,2.39-1.49,3.54-0.24.52-.49,1-0.75,1.55l-0.19.36-0.2.37c-0.14.27-.28,0.54-0.43,0.81,0,0,0,0,0,0s0,0,0,0c-0.12.23-.25,0.44-0.38,0.66l-0.06.11-0.27.46-0.07.12c-0.21.37-.43,0.73-0.67,1.09s-0.34.56-.52,0.83-0.36.55-.55,0.82l-0.06.09c-0.17.26-.34,0.51-0.52,0.76h0l0,0.05c-0.19.27-.39,0.53-0.6,0.8l-0.21.3-0.15.2a1.55,1.55,0,0,1-.1.13,1.58,1.58,0,0,1-.2.25l0,0a0.73,0.73,0,0,1-.08.11l-0.6.75a3.15,3.15,0,0,1-.24.3l-0.13.15c-0.25.31-.51,0.61-0.77,0.91l-0.34.39c-0.37.42-.75,0.84-1.14,1.24l0,0c-0.42.44-.85,0.87-1.28,1.29s-0.82.79-1.24,1.17c-0.26.24-.52,0.48-0.79,0.7s-0.43.39-.65,0.57l-0.31.26-0.49.4c-0.35.29-.7,0.56-1.05,0.83-0.19.15-.38,0.3-0.58,0.44l-0.12.09-0.29.22-0.56.4-0.48.34-0.16.11-0.27.19-0.5.33c-0.32.22-.65,0.43-1,0.64s-0.87.54-1.32,0.8c-0.25.16-.51,0.3-0.77,0.44a0.07,0.07,0,0,1-.05,0l-0.08,0-0.67.37-0.08,0-0.16.09c-0.52.29-1,.56-1.58,0.82s-0.88.43-1.32,0.62l-0.39.19c-0.45.2-.89,0.4-1.34,0.57l-0.07,0-0.12.05a0.11,0.11,0,0,1-.08,0q-0.6.25-1.2,0.48l-0.41.16h0l-0.13,0-0.07,0-0.09,0h0l-1.25.44-0.78.25-0.47.15h0c-0.31.1-.62,0.2-0.94,0.28l-0.07,0-1.28.35h0l-0.61.15-0.56.14-0.56.13-0.29.06-0.43.09-1.05.21h0l-1.32.22-0.25,0-0.21,0-0.59.08c-0.39.06-.79,0.1-1.18,0.15h-0.07l-1.73.16h0l-0.66,1.42a23.16,23.16,0,0,0-1.92-1.37h0q-0.54-.36-1.11-0.69a31.35,31.35,0,0,0-18.81-4.15,30.3,30.3,0,0,0-9.86,2.76,27.87,27.87,0,0,0-3.33,1.87c-0.35.22-.69,0.45-1,0.69a25.39,25.39,0,0,0-2,1.57,27.66,27.66,0,0,0-2.42,2.29,24.2,24.2,0,0,0-1.8,2.11,26.92,26.92,0,0,0-3.4,5.83,29.9,29.9,0,0,0-1.48,17,28.77,28.77,0,0,0,2.14,6.7h0c0.17,0.38.35,0.75,0.55,1.12a21.17,21.17,0,0,0,7.24,8.15,18.2,18.2,0,0,0,3.39,1.69,22,22,0,0,0,12.88.69c0.33-.08.67-0.17,1-0.27h0a18.9,18.9,0,0,0,4.14-1.74,17.75,17.75,0,0,0,2.78-1.91,15.93,15.93,0,0,0,2.7-3,17.28,17.28,0,0,0,2.88-12.25,12.2,12.2,0,0,0-7.66-9.81l-0.09,0a7.86,7.86,0,0,0-5.65,0,2.37,2.37,0,0,0-.34.13,10.25,10.25,0,0,0-1.43.74,12.81,12.81,0,0,0-2.52,2.1,0.86,0.86,0,0,0-.05,1,0.57,0.57,0,0,0,.82.08,9.66,9.66,0,0,1,1-.92,8.76,8.76,0,0,1,1.41-1c0.23-.12.47-0.24,0.72-0.35h0a7,7,0,0,1,5.33,0l0.08,0a10.65,10.65,0,0,1,7,8.51,15.14,15.14,0,0,1-3,11.71,14.83,14.83,0,0,1-2,2.09A16.12,16.12,0,0,1,1255,1904l-0.09,0c-0.29.16-.59,0.31-0.89,0.46l-0.19.09c-0.31.15-.63,0.28-0.95,0.41l-0.61.23c-0.42.16-.84,0.3-1.28,0.42s-0.66.19-1,.26-0.67.15-1,.21l-0.77.13c-0.52.07-1,.13-1.56,0.16l-0.78,0c-0.21,0-.43,0-0.64,0h-1.15l-0.46,0c-0.26,0-.53,0-0.8-0.08l-0.18,0a1.15,1.15,0,0,1-.26,0h-0.05l-0.14,0-0.32,0-0.64-.11a5.29,5.29,0,0,1-.58-0.12l-0.2,0-0.38-.09c-0.25-.06-0.49-0.13-0.73-0.21l-0.42-.13c-0.35-.11-0.7-0.23-1-0.36l-0.61-.26c-0.21-.08-0.41-0.18-0.61-0.28a6.5,6.5,0,0,1-.59-0.3c-0.4-.21-0.78-0.43-1.15-0.67a18.21,18.21,0,0,1-1.58-1.14h0l-0.15-.12a3.82,3.82,0,0,1-.31-0.26l-0.33-.29-0.15-.14a5.38,5.38,0,0,1-.42-0.4c-0.2-.19-0.38-0.38-0.57-0.58s-0.46-.5-0.67-0.76l-0.37-.45q-0.21-.25-0.39-0.51l-0.38-.52c-0.29-.41-0.56-0.82-0.81-1.25a1.73,1.73,0,0,1-.15-0.26,14.41,14.41,0,0,1-.73-1.33c-0.2-.38-0.38-0.77-0.55-1.16s-0.38-.88-0.54-1.33c-0.1-.24-0.18-0.48-0.26-0.72s-0.11-.33-0.16-0.5a1.5,1.5,0,0,1-.11-0.34c-0.09-.3-0.18-0.59-0.26-0.89-0.14-.5-0.26-1-0.37-1.5-0.06-.25-0.11-0.5-0.16-0.76s-0.09-.52-0.14-0.79c0,0,0,0,0-.08a0,0,0,0,1,0,0c0-.11,0-0.22-0.05-0.33s0-.28-0.05-0.42-0.06-.43-0.08-0.64c-0.07-.56-0.12-1.13-0.15-1.69s-0.06-1.22-.06-1.82a26.92,26.92,0,0,1,2-10.43,25.26,25.26,0,0,1,3.25-5.55c0.24-.32.5-0.64,0.76-0.94,0.06-.07.11-0.14,0.18-0.21l0.61-.69,0.47-.49a0.67,0.67,0,0,1,.12-0.12l0.57-.58c0.21-.21.43-0.41,0.65-0.6a28,28,0,0,1,2.25-1.83c0.34-.25.69-0.5,1-0.73l1.08-.68a29,29,0,0,1,11.88-4,29.4,29.4,0,0,1,17.67,3.37c0.37,0.2.74,0.43,1.1,0.67s1,0.65,1.45,1,0.73,0.57,1.08.87,0.9,0.85,1.34,1.29l0.16,0.16c0.36,0.37.7,0.73,1.05,1.11l0,0,0.33,0.37c0.37,0.41.72,0.83,1.06,1.25,0.21,0.25.41,0.5,0.6,0.76s0.39,0.51.58,0.76l0.51,0.71,0.13,0.18c0.17,0.24.34,0.49,0.49,0.74l0,0c0.06,0.08.11,0.16,0.16,0.24a2.05,2.05,0,0,1,.18.27c0.18,0.28.36,0.58,0.54,0.87h0a0.75,0.75,0,0,1,.07.12l0.26,0.44c0.06,0.1.12,0.2,0.17,0.3a1.12,1.12,0,0,1,.08.15c0.08,0.13.16,0.27,0.23,0.41l0.3,0.55a1.09,1.09,0,0,1,.08.15c0.1,0.19.2,0.38,0.29,0.57l0,0s0,0,0,0c0.21,0.43.42,0.86,0.62,1.3l0.3,0.67,0,0.08c0.18,0.41.35,0.83,0.51,1.24,0.08,0.19.15,0.38,0.22,0.57a0.49,0.49,0,0,1,0,.11,0.18,0.18,0,0,1,0,.07c0.19,0.51.37,1,.54,1.54s0.24,0.77.35,1.16c0,0.11.07,0.22,0.1,0.32l0.12,0.43c0,0.14.07,0.29,0.1,0.43s0.1,0.37.14,0.56,0.11,0.41.15,0.62,0.12,0.49.17,0.74c0,0,0,0,0,0s0,0,0,.05,0.05,0.22.07,0.34c0.06,0.32.12,0.64,0.17,1s0.08,0.45.11,0.68c0.06,0.39.11,0.77,0.16,1.16s0.1,0.88.14,1.33,0.07,0.89.09,1.34c0,0.23,0,.47,0,0.7q0,0.69,0,1.38c0,0.34,0,.67,0,1l0,0.76q0,0.53-.06,1l-0.06.71q-0.08.86-.18,1.71l-0.15,1h0c-0.05.31-.11,0.63-0.16,1,0,0.11,0,.22-0.07.33-0.05.27-.11,0.54-0.17,0.82a0.14,0.14,0,0,1,0,.06c-0.08.36-.17,0.72-0.25,1.08s-0.19.71-.28,1.07v0a0,0,0,0,0,0,0c-0.11.39-.22,0.78-0.34,1.16l-0.18.57c0,0.12-.08.25-0.13,0.37a2,2,0,0,1-.07.23c-0.1.28-.2,0.56-0.31,0.84a0.88,0.88,0,0,0-.05.15,0.9,0.9,0,0,1,0,.15c-0.17.45-.35,0.89-0.53,1.32s-0.24.56-.37,0.83-0.22.51-.34,0.76-0.19.41-.3,0.61a0.38,0.38,0,0,1-.06.13l-0.06.13a1.71,1.71,0,0,1-.12.23l-0.24.47-0.18.33-0.27.5-0.33.58-0.13.23c-0.14.25-.29,0.49-0.43,0.72l-0.27.42,0,0c-0.18.29-.37,0.58-0.56,0.86l-0.18.25-0.39.56a4.06,4.06,0,0,1-.23.34l-0.42.55c-0.15.21-.31,0.42-0.47,0.62s-0.33.42-.5,0.62l0,0q-0.3.38-.63,0.75l-0.56.63c-0.12.15-.25,0.29-0.38,0.44l-0.06.06c-0.25.28-.52,0.55-0.78,0.81l-0.05,0h0l-0.39.4-0.4.38-0.1.1-0.06,0q-0.19.19-.39,0.36l-0.1.1-0.07.07,0,0-0.76.67-0.25.21-0.18.15-0.17.14c-0.16.14-.33,0.28-0.49,0.4l-0.14.12-0.13.09-0.05,0a0.41,0.41,0,0,1-.08.06h0l-0.52.4c-0.14.12-.29,0.23-0.44,0.34s-0.38.28-.58,0.4c-0.43.32-.87,0.62-1.32,0.91h0l0,0-0.33.21-0.17.11-0.17.1c-0.23.15-.46,0.29-0.7,0.42l-0.52.31c-0.22.13-.45,0.25-0.68,0.37-0.56.3-1.12,0.59-1.69,0.87l-0.74.35q-0.37.18-.75,0.33l-0.23.11-1.06.43-0.11,0h0l-0.1,0c-0.8.32-1.61,0.6-2.43,0.85l-0.54.17-0.27.07-0.42.12c-0.3.09-.6,0.17-0.91,0.24l-0.34.08-0.52.14-0.43.09-0.31.06-0.72.16-0.17,0-0.9.15-0.29.05-0.46.06-0.16,0h-0.1l-0.86.11h-0.16l-0.14,0c-0.31,0-.62.07-0.94,0.09l-0.4,0h0l-0.66,0a8.18,8.18,0,0,1-.86,0h-0.38a3.85,3.85,0,0,1-.48,0H1244c-0.37,0-.75,0-1.13,0h-0.46l-0.57,0-0.33,0h-0.18l-0.62-.05c-0.19,0-.37,0-0.55-0.06l-0.68-.07-0.68-.09h0l-0.13,0c-0.67-.1-1.34-0.21-2-0.34l-0.74-.15-0.34-.08-0.56-.13-0.46-.11-0.88-.23-0.69-.2-0.18-.05-0.48-.15c-0.34-.1-0.68-0.22-1-0.34l-0.24-.08-0.88-.32-0.28-.11-0.09,0c-0.33-.12-0.65-0.25-1-0.39h0l-0.15-.07q-0.34-.14-0.69-0.3l-0.14-.06-0.59-.28c-0.31-.14-0.62-0.29-0.92-0.45-0.52-.25-1-0.52-1.54-0.81l-1-.59a0.39,0.39,0,0,0-.11-0.06l-0.88-.55h0a3,3,0,0,1-.33-0.21l-0.26-.17-0.32-.22-0.21-.14c-0.27-.18-0.53-0.36-0.79-0.56h0l-0.06,0c-0.29-.21-0.58-0.42-0.86-0.64h0l-0.89-.71h0l-0.14-.11a2.75,2.75,0,0,1-.26-0.22l-0.48-.4h0l0,0c-0.26-.22-0.52-0.45-0.77-0.69l0,0h0l-0.09-.09-0.15-.14a0.15,0.15,0,0,1,0,0l-0.27-.24-0.28-.27h0a1.82,1.82,0,0,1-.2-0.19l-0.2-.2-0.19-.2c-0.32-.32-0.63-0.64-0.93-1l-0.05-.05h0c-0.15-.14-0.3-0.28-0.44-0.43l-0.22-.23a1,1,0,0,1-.17-0.18l-0.06-.06-0.44-.49,0,0-0.29-.34-0.23-.28-0.58-.75a0.14,0.14,0,0,1,0,0l0,0a1.24,1.24,0,0,1-.13-0.19l-0.43-.6h0c-0.15-.2-0.29-0.4-0.42-0.61-0.56-.85-1.11-1.78-1.65-2.78a39.83,39.83,0,0,1-2.06-4.14l-0.14-.33-0.27-.67a0.58,0.58,0,0,1,0-.12c-0.19-.45-0.35-0.9-0.51-1.36s-0.31-.91-0.46-1.37l0-.09c-0.33-.92-0.65-1.89-1-2.89l0-.1c-0.34-1.07-.67-2.19-1-3.35-0.11-.38-0.22-0.77-0.32-1.17s-0.22-.8-0.32-1.21c-0.19-.76-0.38-1.51-0.56-2.26s-0.3-1.22-.44-1.83l-0.21-.88c0-.07,0-0.14-0.05-0.21-0.09-.44-0.2-0.88-0.29-1.31-0.18-.81-0.35-1.62-0.52-2.42s-0.37-1.83-.54-2.73c-0.13-.68-0.26-1.35-0.37-2-0.1-.5-0.18-1-0.27-1.49q-0.21-1.19-.39-2.37c0-.32-0.1-0.63-0.14-1-0.16-1-.3-1.95-0.43-2.92,0-.11,0-0.23,0-0.34-0.12-.85-0.22-1.69-0.32-2.53s-0.22-1.9-.31-2.84-0.18-1.87-.26-2.79-0.15-1.85-.21-2.76c0-.41-0.06-0.81-0.08-1.21s-0.06-1-.08-1.52-0.05-1-.07-1.54c0-.14,0-0.27,0-0.41v-0.09q0-1-.06-2h0c0-.66,0-1.31,0-2,0-1,0-2,0-3,0-.56,0-1.1,0-1.65h0c0-.7,0-1.39,0-2.08s0-1.29.07-1.92l0-.61c0-.6.05-1.2,0.09-1.79l0.06-.89,0.06-.88c0-.56.08-1.13,0.13-1.69q0.14-1.59.3-3.15c0-.51.11-1,0.16-1.52l0-.21c0.05-.39.09-0.78,0.14-1.16h0l0.15-1.16s0,0,0-.06q0.13-1.06.3-2.1c0.11-.74.23-1.48,0.35-2.21,0.09-.55.18-1.1,0.28-1.64,0.05-.29.1-0.57,0.16-0.86l0.24-1.31,0.21-1c0.1-.52.21-1,0.32-1.56s0.23-1.07.35-1.59,0.23-1,.35-1.5h0c0.19-.8.39-1.59,0.59-2.37,0.14-.54.28-1.08,0.43-1.61s0.22-.82.34-1.23,0.3-1.07.45-1.59,0.23-.76.35-1.14c0.25-.85.51-1.69,0.79-2.52s0.54-1.65.82-2.45c0.15-.42.29-0.84,0.44-1.25s0.3-.81.44-1.21c0.54-1.46,1.09-2.86,1.65-4.22,0.24-.6.49-1.19,0.73-1.76s0.57-1.32.87-2,0.53-1.18.8-1.75q1.26-2.7,2.52-5.09c0.51-1,1-1.89,1.51-2.79,0.27-.47.53-0.94,0.8-1.4s0.52-.9.78-1.33l0.77-1.27a51.34,51.34,0,0,1,8.73-12c0.62-.64,1.26-1.25,1.91-1.85,0.48-.45,1-0.88,1.48-1.3l0.72-.6c0.26-.22.53-0.43,0.8-0.64,0.46-.36.94-0.72,1.41-1.07h0l0.26-.19c0.48-.35,1-0.68,1.45-1l0.81-.52,0.41-.26,0.4-.25,0.8-.48c0.28-.17.57-0.33,0.86-0.49,0.52-.29,1-0.57,1.57-0.84l0.23-.12,0,0c0.52-.26,1-0.52,1.55-0.76s1.15-.52,1.74-0.76q0.44-.19.87-0.36l0.88-.34a0,0,0,0,0,0,0c0.59-.22,1.18-0.43,1.78-0.63s1.19-.39,1.8-0.56l1.21-.34c0.6-.17,1.22-0.32,1.83-0.46s1.23-.27,1.84-0.39l1.15-.2,0.44-.07,0.09,0,0.33,0h0.11l0.69-.1c0.3,0,.61-0.09.92-0.12,0.84-.1,1.67-0.18,2.51-0.24s1.4-.08,2.1-0.1,1.12,0,1.68,0l1.48,0,1.07,0h0.15c0.27,0,.54,0,0.81.05l0.44,0,0.78,0.06h0.17l0.19,0h0.14l0.31,0,0.69,0.08q0.91,0.11,1.83.24l0.16,0,0.16,0,1.67,0.28,1.76,0.35,0.12,0,1.73,0.41,0.12,0h0.12l0.25,0.07,0.2,0.06,0.54,0.14,0.24,0.07h0.06l0.29,0.08h0l0.28,0.09,0.33,0.1,1.21,0.38,0.43,0.14,0.78,0.27,0.34,0.12,0.83,0.31h0l0.25,0.1c0.37,0.14.74,0.28,1.11,0.44l0.43,0.17,0.58,0.25,0.23,0.1c0.16,0.06.32,0.14,0.48,0.21l0.48,0.21,0.92,0.43h0l0.28,0.13c0.38,0.18.75,0.36,1.13,0.56l0.4,0.2h0l0.08,0,0.13,0.07,0.69,0.36h0l1.11,0.61,0.65,0.37h0l0.17,0.09,0.09,0.05,0.08,0,0.53,0.32c0.29,0.17.58,0.34,0.86,0.53l0.85,0.54h0l0.42,0.27,0.42,0.27h0l0.42,0.28,0.41,0.29,0.54,0.38,0.28,0.2h0l0.16,0.11,0.3,0.22h0l0.33,0.24h0c0.15,0.1.29,0.21,0.43,0.32l0.38,0.28h0l0,0,0,0,0,0,0,0,0.42,0.34,0.19,0.15,0,0h0l0.78,0.62h0a2.39,2.39,0,0,1,.26.21l0.51,0.43h0l0.63,0.53h0l0.12,0.1h0l0.73,0.65h0l0.15,0.13,0.58,0.54h0c0.25,0.22.49,0.45,0.73,0.69s0.48,0.47.71,0.71,0.47,0.47.7,0.71,0.24,0.24.35,0.37,0,0,0,0h0l0.08,0.07,0.08,0.08,0.17,0.18h0c0.27,0.28.53,0.56,0.78,0.85l0.56,0.63,0.12,0.14,0.29,0.34,0.23,0.28c0.05,0.06.11,0.12,0.15,0.18l0.15,0.17,0.34,0.42c0.42,0.51.83,1,1.23,1.55,0.2,0.27.4,0.53,0.59,0.8h0c0.2,0.26.39,0.53,0.58,0.8h0c0.38,0.54.75,1.08,1.11,1.63,0.19,0.28.37,0.57,0.54,0.85l0.13,0.2c0.13,0.19.24,0.38,0.35,0.57l0,0c0.19,0.29.36,0.58,0.53,0.88s0.33,0.58.49,0.87l0.11,0.18,0.07,0.12a0,0,0,0,0,0,0l0.28,0.52h0c0.16,0.28.31,0.57,0.46,0.86h0l0.18,0.36,0.18,0.35a1.3,1.3,0,0,0,.08.17h0c0.24,0.48.47,1,.68,1.46l0.06,0.12a1.26,1.26,0,0,1,.1.2h0c0.16,0.35.31,0.7,0.45,1.06s0.22,0.51.32,0.76h0c0.17,0.42.33,0.84,0.49,1.27,0,0.07.05,0.15,0.08,0.22,0.16,0.44.31,0.87,0.45,1.31,0.45,1.33.84,2.68,1.17,4,0.11,0.43.21,0.87,0.3,1.31a1.16,1.16,0,0,1,0,.18,0.13,0.13,0,0,1,0,.06,1,1,0,0,1,0,.17c0.07,0.33.13,0.66,0.19,1s0.12,0.66.17,1l0.06,0.35c0,0.16.06,0.32,0.08,0.47a0.77,0.77,0,0,0,0,.15v0c0.08,0.55.16,1.11,0.21,1.67,0,0.05,0,.11,0,0.16s0,0.11,0,.17c0,0.33.07,0.67,0.09,1s0.06,0.67.07,1,0,0.57.05,0.86a0.76,0.76,0,0,1,0,.15l0,1S1319.78,1807.22,1319.77,1807.23Zm-121.38,57c0,0.09,0,.18,0,0.28,0.07,0.83.15,1.67,0.24,2.51C1198.56,1866,1198.47,1865.11,1198.39,1864.19Zm0-.19a1.25,1.25,0,0,0,0,.19q-0.12-1.4-.21-2.76C1198.24,1862.28,1198.3,1863.14,1198.37,1864Zm70.07-5.27a31.35,31.35,0,0,0-18.81-4.15,30.3,30.3,0,0,0-9.86,2.76,27.87,27.87,0,0,0-3.33,1.87c-0.35.22-.69,0.45-1,0.69a25.39,25.39,0,0,0-2,1.57,27.66,27.66,0,0,0-2.42,2.29,24.2,24.2,0,0,0-1.8,2.11,26.92,26.92,0,0,0-3.4,5.83,29.9,29.9,0,0,0-1.48,17,28.77,28.77,0,0,0,2.14,6.7h0c0.17,0.38.35,0.75,0.55,1.12a21.17,21.17,0,0,0,7.24,8.15,18.2,18.2,0,0,0,3.39,1.69,22,22,0,0,0,12.88.69c0.33-.08.67-0.17,1-0.27h0a18.9,18.9,0,0,0,4.14-1.74,17.75,17.75,0,0,0,2.78-1.91,15.93,15.93,0,0,0,2.7-3,17.28,17.28,0,0,0,2.88-12.25,12.2,12.2,0,0,0-7.66-9.81l-0.09,0a7.86,7.86,0,0,0-5.65,0,2.37,2.37,0,0,0-.34.13,10.25,10.25,0,0,0-1.43.74,12.81,12.81,0,0,0-2.52,2.1,0.86,0.86,0,0,0-.05,1,0.57,0.57,0,0,0,.82.08,9.66,9.66,0,0,1,1-.92,8.76,8.76,0,0,1,1.41-1c0.23-.12.47-0.24,0.72-0.35h0a7,7,0,0,1,5.33,0l0.08,0a10.65,10.65,0,0,1,7,8.51,15.14,15.14,0,0,1-3,11.71,14.83,14.83,0,0,1-2,2.09A16.12,16.12,0,0,1,1255,1904l-0.09,0c-0.29.16-.59,0.31-0.89,0.46l-0.19.09c-0.31.15-.63,0.28-0.95,0.41l-0.61.23c-0.42.16-.84,0.3-1.28,0.42s-0.66.19-1,.26-0.67.15-1,.21l-0.77.13c-0.52.07-1,.13-1.56,0.16l-0.78,0c-0.21,0-.43,0-0.64,0h-1.15l-0.46,0c-0.26,0-.53,0-0.8-0.08l-0.18,0a1.15,1.15,0,0,1-.26,0h-0.05l-0.14,0-0.32,0-0.64-.11a5.29,5.29,0,0,1-.58-0.12l-0.2,0-0.38-.09c-0.25-.06-0.49-0.13-0.73-0.21l-0.42-.13c-0.35-.11-0.7-0.23-1-0.36l-0.61-.26c-0.21-.08-0.41-0.18-0.61-0.28a6.5,6.5,0,0,1-.59-0.3c-0.4-.21-0.78-0.43-1.15-0.67a18.21,18.21,0,0,1-1.58-1.14h0l-0.15-.12a3.82,3.82,0,0,1-.31-0.26l-0.33-.29-0.15-.14a5.38,5.38,0,0,1-.42-0.4c-0.2-.19-0.38-0.38-0.57-0.58s-0.46-.5-0.67-0.76l-0.37-.45q-0.21-.25-0.39-0.51l-0.38-.52c-0.29-.41-0.56-0.82-0.81-1.25a1.73,1.73,0,0,1-.15-0.26,14.41,14.41,0,0,1-.73-1.33c-0.2-.38-0.38-0.77-0.55-1.16s-0.38-.88-0.54-1.33c-0.1-.24-0.18-0.48-0.26-0.72s-0.11-.33-0.16-0.5a1.5,1.5,0,0,1-.11-0.34c-0.09-.3-0.18-0.59-0.26-0.89-0.14-.5-0.26-1-0.37-1.5-0.06-.25-0.11-0.5-0.16-0.76s-0.09-.52-0.14-0.79c0,0,0,0,0-.08a0,0,0,0,1,0,0c0-.11,0-0.22-0.05-0.33s0-.28-0.05-0.42-0.06-.43-0.08-0.64c-0.07-.56-0.12-1.13-0.15-1.69s-0.06-1.22-.06-1.82a26.92,26.92,0,0,1,2-10.43,25.26,25.26,0,0,1,3.25-5.55c0.24-.32.5-0.64,0.76-0.94,0.06-.07.11-0.14,0.18-0.21l0.61-.69,0.47-.49a0.67,0.67,0,0,1,.12-0.12l0.57-.58c0.21-.21.43-0.41,0.65-0.6a28,28,0,0,1,2.25-1.83c0.34-.25.69-0.5,1-0.73l1.08-.68a29,29,0,0,1,11.88-4,29.4,29.4,0,0,1,17.67,3.37c0.37,0.2.74,0.43,1.1,0.67l0.75-.3h0l0.11,0,0.15-.06Q1269,1859.06,1268.44,1858.73Zm0,0a31.35,31.35,0,0,0-18.81-4.15,30.3,30.3,0,0,0-9.86,2.76,27.87,27.87,0,0,0-3.33,1.87c-0.35.22-.69,0.45-1,0.69a25.39,25.39,0,0,0-2,1.57,27.66,27.66,0,0,0-2.42,2.29,24.2,24.2,0,0,0-1.8,2.11,26.92,26.92,0,0,0-3.4,5.83,29.9,29.9,0,0,0-1.48,17,28.77,28.77,0,0,0,2.14,6.7h0c0.17,0.38.35,0.75,0.55,1.12a21.17,21.17,0,0,0,7.24,8.15,18.2,18.2,0,0,0,3.39,1.69,22,22,0,0,0,12.88.69c0.33-.08.67-0.17,1-0.27h0a18.9,18.9,0,0,0,4.14-1.74,17.75,17.75,0,0,0,2.78-1.91,15.93,15.93,0,0,0,2.7-3,17.28,17.28,0,0,0,2.88-12.25,12.2,12.2,0,0,0-7.66-9.81l-0.09,0a7.86,7.86,0,0,0-5.65,0,2.37,2.37,0,0,0-.34.13,10.25,10.25,0,0,0-1.43.74,12.81,12.81,0,0,0-2.52,2.1,0.86,0.86,0,0,0-.05,1,0.57,0.57,0,0,0,.82.08,9.66,9.66,0,0,1,1-.92,8.76,8.76,0,0,1,1.41-1c0.23-.12.47-0.24,0.72-0.35h0a7,7,0,0,1,5.33,0l0.08,0a10.65,10.65,0,0,1,7,8.51,15.14,15.14,0,0,1-3,11.71,14.83,14.83,0,0,1-2,2.09A16.12,16.12,0,0,1,1255,1904l-0.09,0c-0.29.16-.59,0.31-0.89,0.46l-0.19.09c-0.31.15-.63,0.28-0.95,0.41l-0.61.23c-0.42.16-.84,0.3-1.28,0.42s-0.66.19-1,.26-0.67.15-1,.21l-0.77.13c-0.52.07-1,.13-1.56,0.16l-0.78,0c-0.21,0-.43,0-0.64,0h-1.15l-0.46,0c-0.26,0-.53,0-0.8-0.08l-0.18,0a1.15,1.15,0,0,1-.26,0h-0.05l-0.14,0-0.32,0-0.64-.11a5.29,5.29,0,0,1-.58-0.12l-0.2,0-0.38-.09c-0.25-.06-0.49-0.13-0.73-0.21l-0.42-.13c-0.35-.11-0.7-0.23-1-0.36l-0.61-.26c-0.21-.08-0.41-0.18-0.61-0.28a6.5,6.5,0,0,1-.59-0.3c-0.4-.21-0.78-0.43-1.15-0.67a18.21,18.21,0,0,1-1.58-1.14h0l-0.15-.12a3.82,3.82,0,0,1-.31-0.26l-0.33-.29-0.15-.14a5.38,5.38,0,0,1-.42-0.4c-0.2-.19-0.38-0.38-0.57-0.58s-0.46-.5-0.67-0.76l-0.37-.45q-0.21-.25-0.39-0.51l-0.38-.52c-0.29-.41-0.56-0.82-0.81-1.25a1.73,1.73,0,0,1-.15-0.26,14.41,14.41,0,0,1-.73-1.33c-0.2-.38-0.38-0.77-0.55-1.16s-0.38-.88-0.54-1.33c-0.1-.24-0.18-0.48-0.26-0.72s-0.11-.33-0.16-0.5a1.5,1.5,0,0,1-.11-0.34c-0.09-.3-0.18-0.59-0.26-0.89-0.14-.5-0.26-1-0.37-1.5-0.06-.25-0.11-0.5-0.16-0.76s-0.09-.52-0.14-0.79c0,0,0,0,0-.08a0,0,0,0,1,0,0c0-.11,0-0.22-0.05-0.33s0-.28-0.05-0.42-0.06-.43-0.08-0.64c-0.07-.56-0.12-1.13-0.15-1.69s-0.06-1.22-.06-1.82a26.92,26.92,0,0,1,2-10.43,25.26,25.26,0,0,1,3.25-5.55c0.24-.32.5-0.64,0.76-0.94,0.06-.07.11-0.14,0.18-0.21l0.61-.69,0.47-.49a0.67,0.67,0,0,1,.12-0.12l0.57-.58c0.21-.21.43-0.41,0.65-0.6a28,28,0,0,1,2.25-1.83c0.34-.25.69-0.5,1-0.73l1.08-.68a29,29,0,0,1,11.88-4,29.4,29.4,0,0,1,17.67,3.37c0.37,0.2.74,0.43,1.1,0.67l0.75-.3h0l0.11,0,0.15-.06Q1269,1859.06,1268.44,1858.73Z" transform="translate(-622.27 -1521.15)"/><path class="cls-27" d="M1226.91,1872.18c-4.16,9.76-1.91,25.08,8,31.45,6.69,4.3,16.67,3.67,22.72-1.45a14.51,14.51,0,0,0,2-2.1c-1,.4-2.45,1.12-2.69,1.19a29.51,29.51,0,0,1-8.95,1.61,19.64,19.64,0,0,1-18-11.48c-3-6.49-3.8-13.38-.92-20.07a32,32,0,0,1,8.84-11.58,27.7,27.7,0,0,0-7.73,6.87A25.13,25.13,0,0,0,1226.91,1872.18Z" transform="translate(-622.27 -1521.15)"/><path class="cls-28" d="M1238.89,1905.5a20.35,20.35,0,0,0,7,1,6.17,6.17,0,0,0-3.6-1.36A7.11,7.11,0,0,0,1238.89,1905.5Z" transform="translate(-622.27 -1521.15)"/><path class="cls-28" d="M1228.6,1896.93a20.25,20.25,0,0,0,4.71,5.55c0.2-.94-0.58-2.52-2-3.86A7,7,0,0,0,1228.6,1896.93Z" transform="translate(-622.27 -1521.15)"/><path class="cls-28" d="M1225,1884.58a30,30,0,0,0,1,6.09,6.55,6.55,0,0,0,0-3.67A8.12,8.12,0,0,0,1225,1884.58Z" transform="translate(-622.27 -1521.15)"/><path class="cls-27" d="M1226.11,1923.38a40.45,40.45,0,0,0,51.22-54.36,40,40,0,0,1,6.47,18.17c-0.82.74-1.41,2.49-1.43,4.54a6.71,6.71,0,0,0,1.29,4.49,39.84,39.84,0,0,1-2.13,8.62c-1.51.39-3.4,1.91-4.91,4.14-2,2.92-2.62,6-1.6,7.27a39.59,39.59,0,0,1-5.25,5.31,9.93,9.93,0,0,0-6.28,1.25c-3,1.52-5,3.78-5,5.39a39.89,39.89,0,0,1-10,2.43,15.82,15.82,0,0,0-4.93-.79,16,16,0,0,0-4.82.65,39.73,39.73,0,0,1-23.94-12.56,23.65,23.65,0,0,1-3.52-4.31A39.94,39.94,0,0,0,1226.11,1923.38Z" transform="translate(-622.27 -1521.15)"/><path class="cls-27" d="M1248.52,1930.64a39.5,39.5,0,0,1-9.75-.13,16,16,0,0,1,4.82-.65A15.82,15.82,0,0,1,1248.52,1930.64Z" transform="translate(-622.27 -1521.15)"/><path class="cls-28" d="M1248.52,1930.64a39.5,39.5,0,0,1-9.75-.13,16,16,0,0,1,4.82-.65A15.82,15.82,0,0,1,1248.52,1930.64Z" transform="translate(-622.27 -1521.15)"/><path class="cls-27" d="M1263.48,1922.82a9.93,9.93,0,0,1,6.28-1.25,40,40,0,0,1-11.25,6.63C1258.45,1926.6,1260.47,1924.34,1263.48,1922.82Z" transform="translate(-622.27 -1521.15)"/><path class="cls-28" d="M1263.48,1922.82a9.93,9.93,0,0,1,6.28-1.25,40,40,0,0,1-11.25,6.63C1258.45,1926.6,1260.47,1924.34,1263.48,1922.82Z" transform="translate(-622.27 -1521.15)"/><path class="cls-27" d="M1276.61,1909c1.52-2.23,3.4-3.74,4.91-4.14,0,0.1-.06.2-0.1,0.3a39.71,39.71,0,0,1-6.41,11.11C1274,1915,1274.63,1911.91,1276.61,1909Z" transform="translate(-622.27 -1521.15)"/><path class="cls-28" d="M1276.61,1909c1.52-2.23,3.4-3.74,4.91-4.14,0,0.1-.06.2-0.1,0.3a39.71,39.71,0,0,1-6.41,11.11C1274,1915,1274.63,1911.91,1276.61,1909Z" transform="translate(-622.27 -1521.15)"/><path class="cls-27" d="M1282.36,1891.74c0-2,.61-3.8,1.43-4.54a39.48,39.48,0,0,1-.14,9A6.71,6.71,0,0,1,1282.36,1891.74Z" transform="translate(-622.27 -1521.15)"/><path class="cls-28" d="M1282.36,1891.74c0-2,.61-3.8,1.43-4.54a39.48,39.48,0,0,1-.14,9A6.71,6.71,0,0,1,1282.36,1891.74Z" transform="translate(-622.27 -1521.15)"/><path class="cls-2" d="M1208.63,1815.91s-2.74,11.68-.83,20.06,24.1-12.77,24.1-12.77S1213.19,1826.16,1208.63,1815.91Z" transform="translate(-622.27 -1521.15)"/><path class="cls-32" d="M1208.63,1815.91q-0.57,3.08-.88,6.2c-0.1,1-.19,2.08-0.23,3.12s-0.1,2.08-.09,3.12,0,2.08.11,3.11,0.2,2.06.38,3.07c0.11,0.48.2,1.05,0.32,1.46a2.26,2.26,0,0,0,.29.67l0.16,0.24c0.06,0.08.16,0.13,0.23,0.2a3,3,0,0,0,2.63.19,14.17,14.17,0,0,0,2.81-1.15c0.92-.46,1.79-1,2.67-1.56,1.74-1.12,3.41-2.35,5.05-3.63,3.29-2.54,6.47-5.26,9.52-8.08l0.37,0.76a40.46,40.46,0,0,1-6.55.35,35.11,35.11,0,0,1-6.51-.75,18.24,18.24,0,0,1-6.08-2.42,12.72,12.72,0,0,1-1.32-1,11.33,11.33,0,0,1-1.16-1.15,8.7,8.7,0,0,1-1-1.32A11.5,11.5,0,0,1,1208.63,1815.91Zm0,0a11.44,11.44,0,0,0,.83,1.39,4.93,4.93,0,0,0,.49.64,7.2,7.2,0,0,0,.53.61,11.08,11.08,0,0,0,1.19,1.08,12.37,12.37,0,0,0,1.33.89,13.66,13.66,0,0,0,1.42.73c0.49,0.22,1,.41,1.49.58s1,0.34,1.53.46,1,0.25,1.56.36a34.34,34.34,0,0,0,6.4.55,47.16,47.16,0,0,0,6.4-.44l1.39-.2-1,1c-3.06,2.88-6.2,5.65-9.52,8.23-1.67,1.27-3.38,2.51-5.16,3.63-0.9.55-1.8,1.1-2.76,1.57a15,15,0,0,1-3,1.19,6.51,6.51,0,0,1-1.67.21,4.67,4.67,0,0,1-.88-0.14,2.51,2.51,0,0,1-.82-0.45,2.93,2.93,0,0,1-.35-0.32l-0.26-.41a2.91,2.91,0,0,1-.31-0.77c-0.16-.59-0.2-1.07-0.31-1.6-0.15-1-.25-2.1-0.3-3.16s-0.06-2.11,0-3.16,0.09-2.1.19-3.14,0.23-2.09.38-3.12A59.08,59.08,0,0,1,1208.63,1815.91Z" transform="translate(-622.27 -1521.15)"/><path class="cls-32" d="M1208,1812.25l0.13,0.35c0.07,0.23.24,0.55,0.41,1s0.45,0.87.78,1.38a5.22,5.22,0,0,0,.55.78c0.22,0.26.38,0.56,0.64,0.82l0.77,0.81,0.9,0.78a6.23,6.23,0,0,0,1,.73,8.78,8.78,0,0,0,1.1.68c0.4,0.19.8,0.4,1.2,0.61s0.86,0.32,1.29.5a17.75,17.75,0,0,0,2.73.8l0.7,0.19c0.24,0,.48.07,0.72,0.11l1.43,0.23a28.08,28.08,0,0,0,2.83.29c0.46,0,.92.08,1.37,0.13s0.89,0,1.33,0c0.86,0,1.69.05,2.45,0.09s1.46,0,2.09,0,1.18,0,1.63,0c0.91,0,1.44.08,1.44,0.08s-0.49.19-1.35,0.48c-0.43.14-1,.32-1.58,0.49a19.08,19.08,0,0,1-2.08.54c-0.77.14-1.61,0.28-2.51,0.4-0.45.06-.91,0.14-1.38,0.18s-1,0-1.46,0a19,19,0,0,1-3.08-.08l-1.59-.19c-0.27,0-.53-0.06-0.8-0.11l-0.79-.2-1.58-.42a10.37,10.37,0,0,1-1.53-.59,12.25,12.25,0,0,1-1.46-.69c-0.46-.28-0.91-0.56-1.35-0.85a14.2,14.2,0,0,1-2.24-2c-0.3-.37-0.62-0.71-0.88-1.08l-0.66-1.12a9.61,9.61,0,0,1-.83-2.07,9.31,9.31,0,0,1-.33-1.66A6.53,6.53,0,0,1,1208,1812.25Z" transform="translate(-622.27 -1521.15)"/><path class="cls-4" d="M1172.57,1896.92h0c-0.13-.1-0.25-0.21-0.37-0.32Z" transform="translate(-622.27 -1521.15)"/><path class="cls-4" d="M1174.74,1898.61l0.15,0.11,0,0-0.25-.18-0.18-.14Z" transform="translate(-622.27 -1521.15)"/><path class="cls-25" d="M1174.89,1898.72l0.15,0.11,0.11,0.09,0.2,0.14,0.53,0.35,0.33,0.23,0.19,0.12-0.52-.35-0.84-.58" transform="translate(-622.27 -1521.15)"/><path class="cls-4" d="M1177.82,1900.64l0.4,0.24c-0.14-.07-0.27-0.15-0.4-0.23l-0.07,0Z" transform="translate(-622.27 -1521.15)"/><path class="cls-4" d="M1181.76,1902.71l0.07,0-0.26-.12-0.35-.16h0l-0.47-.24,0.49,0.24,0.39,0.18Z" transform="translate(-622.27 -1521.15)"/><path class="cls-4" d="M1184.1,1903.69l0.2,0.08-0.2-.07h0Z" transform="translate(-622.27 -1521.15)"/><path class="cls-4" d="M1185.25,1904.12l-0.41-.14a0,0,0,0,0,0,0l-0.45-.17L1185,1904Z" transform="translate(-622.27 -1521.15)"/><path class="cls-4" d="M1186,1904.36l-0.18-.06h0l0.07,0,0.49,0.17Z" transform="translate(-622.27 -1521.15)"/><path class="cls-4" d="M1187.6,1904.86l0.11,0h0Z" transform="translate(-622.27 -1521.15)"/><path class="cls-4" d="M1187.71,1904.89l0.62,0.17-0.24-.06Z" transform="translate(-622.27 -1521.15)"/><path class="cls-4" d="M1189.91,1905.45l0.21,0-0.31-.06-0.15,0-0.44-.11-0.43-.11C1189.16,1905.28,1189.54,1905.37,1189.91,1905.45Z" transform="translate(-622.27 -1521.15)"/><path class="cls-4" d="M1190.78,1905.63l0.24,0.05h0l-0.13,0Z" transform="translate(-622.27 -1521.15)"/><path class="cls-4" d="M1194.63,1906.22c0.17,0,.34,0,0.51.06H1195c-0.38,0-.76-0.08-1.13-0.13l-0.27,0c-0.5-.06-1-0.14-1.49-0.23h-0.1l-0.25,0-0.26,0-0.13,0,0.25,0q0.75,0.14,1.5.24h0.05C1193.68,1906.11,1194.16,1906.17,1194.63,1906.22Z" transform="translate(-622.27 -1521.15)"/><path class="cls-4" d="M1202.25,1906.31h-0.18l-0.45,0a0,0,0,0,1,0,0Z" transform="translate(-622.27 -1521.15)"/><path class="cls-4" d="M1203.38,1906.22l0.41,0-0.07,0-0.24,0h-0.1Z" transform="translate(-622.27 -1521.15)"/><path class="cls-4" d="M1205.29,1906a7,7,0,0,0,.78-0.13l-0.18,0-1,.15A2.25,2.25,0,0,0,1205.29,1906Z" transform="translate(-622.27 -1521.15)"/><text class="cls-33" transform="matrix(0.79, -0.61, 0.61, 0.79, 219.97, 130.57)">SEO</text></svg>