<svg id="Calque_8" data-name="Calque 8" xmlns="http://www.w3.org/2000/svg" viewBox="0 0 312.25 315.97"><defs><style>.cls-1{fill:#0a2f41;}.cls-2{fill:#29c5e5;}.cls-3{fill:#2fd82f;}</style></defs><title>optimise</title><path class="cls-1" d="M906.38,1058.83A156.13,156.13,0,1,1,729.29,904.11h0a155.63,155.63,0,0,1,21-1.4c3,0,6.09.09,9.1,0.26q7,0.4,13.84,1.42h0A156.16,156.16,0,0,1,906.38,1058.83Z" transform="translate(-594.13 -899)"/><rect class="cls-2" x="44.13" y="156.33" width="45.81" height="78.09" rx="6.49" ry="6.49"/><rect class="cls-2" x="103.52" y="138.25" width="45.81" height="96.17" rx="7.2" ry="7.2"/><rect class="cls-2" x="162.92" y="115.98" width="45.81" height="118.44" rx="8" ry="8"/><rect class="cls-2" x="222.31" y="85.27" width="45.81" height="149.15" rx="8.97" ry="8.97"/><path class="cls-3" d="M636.14,1015s87.08-6.3,159.33-83L780,916l63.79-17-12.28,62.88-15-13.21S766.14,1009.92,636.14,1015Z" transform="translate(-594.13 -899)"/></svg>