<svg id="Calque_1" data-name="Calque 1" xmlns="http://www.w3.org/2000/svg" viewBox="0 0 64 52"><defs><style>.cls-1{fill:#fff;}</style></defs><title>twitter</title><path class="cls-1" d="M64,6.2a26.92,26.92,0,0,1-7.5,2.1A13.76,13.76,0,0,0,62.2,1a25.73,25.73,0,0,1-8.4,3.2A12.6,12.6,0,0,0,44.3,0,13.14,13.14,0,0,0,31.2,13.1a15.26,15.26,0,0,0,.3,3A36.65,36.65,0,0,1,4.5,2.4,12.34,12.34,0,0,0,2.7,9,13,13,0,0,0,8.5,19.9a14.36,14.36,0,0,1-5.9-1.6v0.2A13.11,13.11,0,0,0,13.1,31.4a13.42,13.42,0,0,1-3.5.4,21.05,21.05,0,0,1-2.5-.2,13.16,13.16,0,0,0,12.3,9.1A26.56,26.56,0,0,1,3.1,46.3,30.28,30.28,0,0,1,0,46.1,37.3,37.3,0,0,0,20.1,52c24.1,0,37.3-20,37.3-37.3V13A28.4,28.4,0,0,0,64,6.2Z" transform="translate(0 0)"/></svg>