<svg id="Calque_1" data-name="Calque 1" xmlns="http://www.w3.org/2000/svg" viewBox="0 0 53.91 38"><defs><style>.cls-1{fill:#fff;}</style></defs><title>video</title><path class="cls-1" d="M53.5,9.33s-0.5-3.7-2.1-5.4A7.54,7.54,0,0,0,46,1.63c-7.7-.5-19-0.5-19-0.5s-11.3,0-18.9.5a7.4,7.4,0,0,0-5.4,2.3C1.1,5.53.6,9.33,0.6,9.33a74.65,74.65,0,0,0-.6,8.8v4.1a86,86,0,0,0,.5,8.7s0.5,3.7,2.1,5.4c2.1,2.2,4.8,2.1,6,2.3C13,39,27,39.13,27,39.13s11.3,0,18.9-.6a7.27,7.27,0,0,0,5.4-2.3c1.6-1.6,2.1-5.4,2.1-5.4s0.5-4.4.5-8.7v-4A74.33,74.33,0,0,0,53.5,9.33Zm-34,24.93V6L34.42,20.13Z" transform="translate(0 -1.13)"/></svg>