<svg id="622d175d-0833-49ca-9411-3e9eeb33ccd8" data-name="Calque 1" xmlns="http://www.w3.org/2000/svg" viewBox="0 0 53.91 38"><defs><style>.\38 be644e5-6a58-458c-be74-af9a1aa9343b{fill:#0a2f41;}</style></defs><title>video-hover</title><path class="8be644e5-6a58-458c-be74-af9a1aa9343b" d="M53.5,8.2S53,4.5,51.4,2.8A7.54,7.54,0,0,0,46,.5C38.3,0,27,0,27,0S15.7,0,8.1.5A7.4,7.4,0,0,0,2.7,2.8C1.1,4.4.6,8.2,0.6,8.2A74.65,74.65,0,0,0,0,17v4.1a86,86,0,0,0,.5,8.7S1,33.5,2.6,35.2c2.1,2.2,4.8,2.1,6,2.3C13,37.87,27,38,27,38s11.3,0,18.9-.6a7.27,7.27,0,0,0,5.4-2.3c1.6-1.6,2.1-5.4,2.1-5.4s0.5-4.4.5-8.7V17A74.33,74.33,0,0,0,53.5,8.2Zm-34,24.93V4.87L34.42,19Z"/></svg>